M48
INCH
T01C0.0191
T02C0.0394
T03C0.04
T04C0.0433
T05C0.0551
%
T01
X+029315Y+016440
X+029315Y+015940
X+029315Y+015440
X+029315Y+014940
X+029315Y+014440
X+029315Y+013940
X+029315Y+013440
X+029315Y+012940
X+029315Y+012440
X+029190Y+011690
X+031140Y+012540
X+032815Y+011940
X+032240Y+010040
X+032940Y+009565
X+033940Y+009815
X+035315Y+009690
X+036190Y+011440
X+036315Y+012440
X+036315Y+012940
X+036315Y+013440
X+036315Y+013940
X+036315Y+014440
X+036315Y+014940
X+036315Y+015440
X+036315Y+015940
X+036315Y+016440
X+036815Y+018440
X+036253Y+020502
X+033940Y+020340
X+033040Y+020040
X+032340Y+020040
X+029440Y+020502
X+029815Y+018378
X+026940Y+020440
X+026240Y+020140
X+025440Y+019940
X+022815Y+018440
X+022315Y+016440
X+022315Y+015940
X+022315Y+015440
X+022315Y+014940
X+022315Y+014440
X+022315Y+013940
X+022315Y+013440
X+022315Y+012940
X+022315Y+012440
X+022190Y+011690
X+024540Y+011940
X+025640Y+012440
X+031565Y+008815
X+033940Y+007540
X+032940Y+006140
X+033440Y+005340
X+034540Y+005840
X+031840Y+006040
X+037740Y+012540
X+039640Y+012540
X+039690Y+011940
X+039815Y+011440
X+041315Y+011065
X+042440Y+009815
X+040940Y+008940
X+042440Y+006240
X+042940Y+005340
X+043940Y+005540
X+044440Y+006315
X+041440Y+005640
X+045315Y+009815
X+045940Y+010190
X+043190Y+011940
X+043315Y+012440
X+043315Y+012940
X+043315Y+013440
X+043315Y+013940
X+043315Y+014440
X+043315Y+014940
X+043315Y+015440
X+043315Y+015940
X+043315Y+016440
X+043877Y+018378
X+044840Y+018540
X+043877Y+020440
X+046540Y+019940
X+047340Y+020240
X+047940Y+020440
X+050440Y+020440
X+050815Y+018315
X+051840Y+018740
X+053640Y+019940
X+054440Y+020040
X+055040Y+020440
X+057003Y+020377
X+057877Y+018378
X+059440Y+019240
X+060540Y+019840
X+061340Y+020040
X+061940Y+020540
X+064240Y+019940
X+064940Y+020502
X+064940Y+018378
X+064315Y+016440
X+064315Y+015940
X+064315Y+015440
X+064315Y+014940
X+064315Y+014440
X+064315Y+013940
X+064315Y+013440
X+064315Y+012940
X+064315Y+012440
X+064190Y+011815
X+062190Y+009940
X+062440Y+008140
X+063440Y+008065
X+063940Y+008065
X+064440Y+008065
X+064940Y+008065
X+065440Y+008440
X+064440Y+006340
X+064940Y+005540
X+063940Y+005440
X+063440Y+006140
X+062440Y+005540
X+054940Y+007690
X+053440Y+008440
X+051940Y+008440
X+053003Y+006127
X+053440Y+005440
X+054540Y+005540
X+051940Y+005540
X+054565Y+010315
X+053940Y+011940
X+051565Y+011440
X+051565Y+012940
X+051565Y+013440
X+051565Y+013940
X+051565Y+014440
X+051565Y+014940
X+051565Y+015440
X+051565Y+015940
X+051565Y+016440
X+050315Y+012440
X+057315Y+012440
X+057315Y+012940
X+057315Y+013440
X+057315Y+013940
X+057315Y+014440
X+057315Y+014940
X+057315Y+015440
X+057315Y+015940
X+057315Y+016440
X+057315Y+011440
X+067690Y+011565
X+067690Y+012065
X+068565Y+010940
X+069240Y+010940
X+071315Y+011565
X+071315Y+012440
X+071315Y+012940
X+071315Y+013440
X+071315Y+013940
X+071315Y+014440
X+071315Y+014940
X+071315Y+015440
X+071315Y+015940
X+071315Y+016440
X+071878Y+018378
X+071690Y+020440
X+069565Y+020440
X+068840Y+020540
X+068540Y+020040
X+067540Y+019840
X+074540Y+019840
X+075340Y+019940
X+075940Y+020440
X+078815Y+020440
X+079003Y+018378
X+078315Y+016440
X+078315Y+015940
X+078315Y+015440
X+078315Y+014940
X+078315Y+014440
X+078315Y+013940
X+078315Y+013440
X+078315Y+012940
X+078315Y+012440
X+078315Y+011690
X+076065Y+010815
X+074690Y+011315
X+074690Y+011940
X+075940Y+008440
X+078140Y+008440
X+080065Y+009065
X+079940Y+009565
X+082690Y+010940
X+085190Y+011815
X+085315Y+012440
X+085315Y+012940
X+085315Y+013440
X+085315Y+013940
X+085315Y+014440
X+085315Y+014940
X+085315Y+015440
X+085315Y+015940
X+085315Y+016440
X+085878Y+018378
X+085565Y+020440
X+083040Y+020640
X+082540Y+020040
X+081640Y+019940
X+088540Y+019840
X+089340Y+020040
X+089940Y+020440
X+092877Y+020440
X+092815Y+018315
X+092315Y+016440
X+092315Y+015940
X+092315Y+015440
X+092315Y+014940
X+092315Y+014440
X+092315Y+013940
X+092315Y+013440
X+092315Y+012940
X+092315Y+012440
X+092315Y+011565
X+089565Y+010940
X+089940Y+008440
X+089440Y+007565
X+087940Y+008440
X+087440Y+008440
X+086440Y+008440
X+087502Y+006065
X+087940Y+005440
X+088740Y+005440
X+086240Y+005540
X+078940Y+006315
X+077940Y+006240
X+078340Y+005440
X+077440Y+005440
X+077003Y+006127
X+075740Y+005540
X+070190Y+006815
X+096065Y+010940
X+097315Y+011940
X+099315Y+011565
X+099315Y+012440
X+100565Y+012940
X+100565Y+013440
X+100565Y+013940
X+100565Y+014440
X+100565Y+014940
X+100565Y+015440
X+100565Y+015940
X+100565Y+016440
X+099878Y+018315
X+099627Y+020502
X+097040Y+020440
X+096340Y+020040
X+095540Y+019840
X+102740Y+019940
X+103440Y+019940
X+104040Y+020540
X+106627Y+020440
X+107003Y+018378
X+107565Y+016440
X+107565Y+015940
X+107565Y+015440
X+107565Y+014940
X+107565Y+014440
X+107565Y+013940
X+107565Y+013440
X+107565Y+012940
X+106315Y+012440
X+106190Y+011565
X+104315Y+011940
X+103690Y+011065
X+102690Y+011315
X+102690Y+012065
X+100440Y+008440
X+099440Y+008440
X+098940Y+008440
X+098440Y+008440
X+097940Y+008440
X+097440Y+008440
X+096940Y+008440
X+097878Y+006127
X+098440Y+005440
X+099540Y+005540
X+099940Y+007565
X+096840Y+005540
X+105540Y+005640
X+107003Y+006065
X+107440Y+005440
X+108440Y+005540
X+108940Y+007565
X+108940Y+008440
X+108440Y+008440
X+107940Y+008440
X+107440Y+008440
X+106940Y+008440
X+106440Y+008440
X+105940Y+008440
X+109440Y+008440
X+110690Y+010940
X+111315Y+011565
X+109815Y+011315
X+109815Y+011940
X+114565Y+012440
X+114565Y+012940
X+114565Y+013440
X+114565Y+013940
X+114565Y+014440
X+114565Y+014940
X+114565Y+015440
X+114565Y+015940
X+114565Y+016440
X+113815Y+018315
X+113503Y+020502
X+113740Y+021840
X+115440Y+023740
X+116790Y+022340
X+117640Y+023440
X+119665Y+024090
X+120740Y+024540
X+121940Y+023840
X+122315Y+020565
X+123840Y+019840
X+124640Y+020040
X+125740Y+018140
X+126940Y+017815
X+130465Y+018640
X+131190Y+021565
X+128315Y+022315
X+120627Y+020440
X+120940Y+018378
X+121565Y+016440
X+121565Y+015940
X+121565Y+015440
X+121565Y+014940
X+121565Y+014440
X+121565Y+013940
X+121565Y+013440
X+121565Y+012940
X+121565Y+012440
X+121565Y+011440
X+118315Y+011565
X+118315Y+012440
X+116815Y+012440
X+116815Y+011690
X+114690Y+011440
X+114940Y+008440
X+115440Y+008440
X+115940Y+008440
X+116440Y+008440
X+116940Y+008440
X+117440Y+008440
X+117940Y+008440
X+118440Y+008440
X+117940Y+007565
X+117440Y+006040
X+116690Y+005440
X+116128Y+006127
X+125565Y+007115
X+126690Y+007240
X+126740Y+008340
X+129440Y+007696
X+130490Y+009615
X+131690Y+011415
X+132915Y+008490
X+131790Y+007740
X+132915Y+006615
X+125315Y+011440
X+125315Y+011940
X+125315Y+012440
X+125315Y+012940
X+117540Y+020040
X+116840Y+020040
X+117840Y+020740
X+111040Y+020540
X+110440Y+020040
X+109640Y+019840
X+040840Y+020540
X+040140Y+020140
X+039340Y+019940
X+022127Y+020440
X+019740Y+019440
X+019815Y+018440
X+018440Y+017940
X+018440Y+019940
X+016690Y+016440
X+016690Y+015940
X+016690Y+015440
X+016690Y+014940
X+016690Y+014440
X+016690Y+013940
X+016690Y+013440
X+016690Y+012940
X+016690Y+012440
X+018540Y+012340
X+018940Y+009740
X+017440Y+008315
X+019877Y+007565
X+020440Y+007540
X+019752Y+006065
X+019315Y+005690
X+018690Y+006065
X+017440Y+005340
X+020340Y+005540
X+014765Y+008840
X+014890Y+010028
X+014827Y+010590
X+014890Y+011465
X+010540Y+011640
X+015040Y+016440
T02
X+005440Y+024440
X+005440Y+005440
X+132940Y+005440
X+132940Y+024440
T03
X+011940Y+012940
X+008940Y+012940
X+008940Y+015940
X+008940Y+017940
X+008940Y+019940
X+011940Y+019940
X+011940Y+017940
X+011940Y+015940
T04
X+018315Y+023065
X+017315Y+023065
X+012815Y+022940
X+011815Y+022940
X+022940Y+021940
X+023940Y+021940
X+025940Y+021940
X+026940Y+021940
X+029440Y+021940
X+030440Y+021940
X+032940Y+021940
X+033940Y+021940
X+036440Y+021940
X+037440Y+021940
X+039940Y+021940
X+040940Y+021940
X+043440Y+021940
X+044440Y+021940
X+046940Y+021940
X+047940Y+021940
X+050440Y+021940
X+051440Y+021940
X+053940Y+021940
X+054940Y+021940
X+057440Y+021940
X+058440Y+021940
X+060940Y+021940
X+061940Y+021940
X+064440Y+021940
X+065440Y+021940
X+067940Y+021940
X+068940Y+021940
X+071440Y+021940
X+072440Y+021940
X+074940Y+021940
X+075940Y+021940
X+078440Y+021940
X+079440Y+021940
X+081940Y+021940
X+082940Y+021940
X+085440Y+021940
X+086440Y+021940
X+088940Y+021940
X+089940Y+021940
X+092440Y+021940
X+093440Y+021940
X+095940Y+021940
X+096940Y+021940
X+099440Y+021940
X+100440Y+021940
X+102940Y+021940
X+103940Y+021940
X+106440Y+021940
X+107440Y+021940
X+109940Y+021940
X+110940Y+021940
X+123440Y+022240
X+124440Y+022240
X+128440Y+005240
X+129440Y+005240
X+005440Y+006940
T05
X+015214Y+006215
X+013836Y+006215
X+012458Y+006215
X+011080Y+006215
X+009702Y+006215
T00
M30
