G04 DipTrace 2.4.0.1*
%INInner1.gbr*%
%MOIN*%
%ADD15C,0.013*%
%ADD16C,0.01*%
%ADD22R,0.0669X0.0669*%
%ADD24C,0.0669*%
%ADD25R,0.0906X0.0906*%
%ADD27C,0.0906*%
%ADD28O,0.1387X0.06*%
%ADD35C,0.04*%
%FSLAX44Y44*%
G04*
G70*
G90*
G75*
G01*
%LNInner1*%
%LPD*%
X77940Y6240D2*
D15*
Y6740D1*
X77340Y7340D1*
X76340D1*
X75940Y7740D1*
Y8440D1*
X11940Y17940D2*
X18440D1*
X19315D1*
X19815Y18440D1*
X20440Y7540D2*
Y11440D1*
X19440Y12440D1*
X18640D1*
X18540Y12340D1*
X35315Y9690D2*
D16*
X34815D1*
X34315Y9190D1*
X24690D1*
X22190Y11690D1*
X24540Y11940D2*
D15*
Y21340D1*
X23940Y21940D1*
X31140Y12540D2*
Y21240D1*
X30440Y21940D1*
X19877Y7565D2*
X16040D1*
X14765Y8840D1*
X126940Y17815D2*
Y17640D1*
X124740D1*
X123815Y18565D1*
Y19815D1*
X123840Y19840D1*
X14890Y11465D2*
Y11490D1*
X13940Y10540D1*
Y7503D1*
X14503Y6940D1*
X16690D1*
X18002Y5627D1*
X19252D1*
X19315Y5690D1*
X69565Y20440D2*
Y12565D1*
X70690Y11440D1*
Y7315D1*
X70190Y6815D1*
X122315Y20565D2*
X122815Y21065D1*
X130690D1*
X131190Y21565D1*
X22127Y20440D2*
Y19128D1*
X22815Y18440D1*
X37440Y21940D2*
Y20040D1*
X37940Y19540D1*
Y12740D1*
X37740Y12540D1*
X44440Y21940D2*
X44540D1*
X45140Y21340D1*
Y18840D1*
X44840Y18540D1*
X51440Y21940D2*
Y19140D1*
X51840Y18740D1*
X107565Y15440D2*
X108140D1*
X108740Y16040D1*
Y20640D1*
X107440Y21940D1*
X78940Y6315D2*
D16*
Y8440D1*
X78565Y8815D1*
X74940D1*
X74065Y9690D1*
Y11690D1*
X74315Y11940D1*
X74690D1*
X80065Y9065D2*
X75815D1*
X74690Y10190D1*
Y11315D1*
X58440Y21940D2*
D15*
Y20240D1*
X59440Y19240D1*
X65440Y21940D2*
X64240Y20740D1*
Y19940D1*
X71315Y12940D2*
X70840D1*
X70540Y13240D1*
Y20540D1*
X71140Y21140D1*
X72240D1*
X72440Y21340D1*
Y21940D1*
X79440D2*
Y21540D1*
X79940Y21040D1*
Y14240D1*
X79140Y13440D1*
X78315D1*
X85315Y13940D2*
X86340D1*
X86940Y14540D1*
Y21440D1*
X86440Y21940D1*
X92315Y14440D2*
X93140D1*
X94140Y15440D1*
Y21240D1*
X93440Y21940D1*
X100565Y14940D2*
X100840D1*
X101640Y15740D1*
Y20740D1*
X100440Y21940D1*
X132915Y8490D2*
X132040D1*
X131790Y8240D1*
Y7740D1*
X126740Y8340D2*
Y9240D1*
X128915Y11415D1*
X131690D1*
X36253Y20502D2*
Y19002D1*
X36815Y18440D1*
X57003Y20377D2*
Y19252D1*
X57877Y18378D1*
X33940Y9815D2*
D16*
X33440D1*
X32815Y10440D1*
Y11940D1*
X79940Y9565D2*
X76690D1*
X76065Y10190D1*
Y10815D1*
X89440Y7565D2*
X84315D1*
X82565Y9315D1*
Y10815D1*
X82690Y10940D1*
X54565Y10315D2*
Y11565D1*
X54190Y11940D1*
X53940D1*
X29440Y20502D2*
D15*
Y18753D1*
X29815Y18378D1*
X89940Y8440D2*
D16*
X89315D1*
X88815Y7940D1*
X85315D1*
X83565Y9690D1*
Y11065D1*
X83065Y11565D1*
X78440D1*
X78315Y11690D1*
X64940Y20502D2*
D15*
Y18378D1*
X78815Y20440D2*
Y18565D1*
X79003Y18378D1*
X43877Y20440D2*
Y18378D1*
X50440Y20440D2*
Y18690D1*
X50815Y18315D1*
X32940Y9565D2*
D16*
X30190D1*
X29190Y10565D1*
Y11690D1*
X44440Y6315D2*
X43190D1*
X41315Y8190D1*
Y11065D1*
X45940Y10190D2*
X44440D1*
X42440Y12190D1*
X39940D1*
X39690Y11940D1*
X39815Y11440D2*
X40315D1*
X40690Y11815D1*
X42065D1*
X44065Y9815D1*
X45315D1*
X42440D2*
Y10815D1*
X41815Y11440D1*
X40940D1*
X40565Y11065D1*
X36565D1*
X36190Y11440D1*
X71690Y20440D2*
D15*
Y18565D1*
X71878Y18378D1*
X92877Y20440D2*
Y18377D1*
X92815Y18315D1*
X113503Y20502D2*
Y18627D1*
X113815Y18315D1*
X85565Y20440D2*
Y18690D1*
X85878Y18378D1*
X54940Y7690D2*
D16*
X48440D1*
X46690Y9440D1*
Y10190D1*
X46190Y10690D1*
X44440D1*
X43190Y11940D1*
X53440Y8440D2*
X52940D1*
X51565Y9815D1*
Y11440D1*
X120740Y24540D2*
D15*
X120640D1*
X120440Y24740D1*
X118340D1*
X117640Y24040D1*
Y23440D1*
X65440Y8440D2*
D16*
X65315Y8565D1*
X58565D1*
X57315Y9815D1*
Y11440D1*
X64940Y8065D2*
X66065D1*
X66315Y8315D1*
Y11315D1*
X67065Y12065D1*
X67690D1*
X64440Y8065D2*
Y7940D1*
X64690Y7690D1*
X66190D1*
X66565Y8065D1*
Y11065D1*
X67065Y11565D1*
X67690D1*
X63940Y8065D2*
Y7940D1*
X64565Y7315D1*
X66440D1*
X66940Y7815D1*
Y10065D1*
X68190Y11315D1*
X68865D1*
X69240Y10940D1*
X63440Y8065D2*
Y7940D1*
X64315Y7065D1*
X66690D1*
X67190Y7565D1*
Y9565D1*
X68565Y10940D1*
X62190Y9940D2*
X63190D1*
X64190Y10940D1*
Y11815D1*
X19752Y6065D2*
D15*
Y5128D1*
X20440Y4440D1*
X33440D1*
X42940D1*
X53440D1*
X63988D1*
X77499D1*
X87940D1*
X98440D1*
X107520D1*
X115690D1*
X116690Y5440D1*
X33440Y5340D2*
Y4440D1*
X42940Y5340D2*
Y4440D1*
X53440Y5440D2*
Y4440D1*
X63940Y5440D2*
Y4488D1*
X63988Y4440D1*
X77440Y5440D2*
Y4499D1*
X77499Y4440D1*
X87940Y5440D2*
Y4440D1*
X98440Y5440D2*
Y4440D1*
X107440Y5440D2*
Y4520D1*
X107520Y4440D1*
X18690Y6065D2*
Y6253D1*
X19002Y6565D1*
X32940D1*
Y6140D1*
Y6340D1*
X42440D1*
Y6240D1*
X42890D1*
X43190Y5940D1*
X52815D1*
X53003Y6127D1*
X63440D1*
Y6140D1*
X107003Y6065D2*
X97878D1*
Y6127D1*
X63440Y6140D2*
X63865D1*
X64065Y5940D1*
X64753D1*
X64940Y6127D1*
X77003D1*
X77253D1*
X77503Y5877D1*
X79627D1*
X79815Y6065D1*
X87502D1*
X97878D1*
X107003D2*
X116065D1*
X116128Y6127D1*
X87940Y8440D2*
D16*
Y9815D1*
X89065Y10940D1*
X89565D1*
X120940Y18378D2*
D15*
Y20127D1*
X120627Y20440D1*
X99627Y20502D2*
Y18565D1*
X99878Y18315D1*
X106627Y20440D2*
Y18753D1*
X107003Y18378D1*
X87440Y8440D2*
D16*
Y10565D1*
X86190Y11815D1*
X85190D1*
X99940Y7565D2*
X93690D1*
X91815Y9440D1*
Y11690D1*
X92065Y11940D1*
X92565D1*
X92815Y11690D1*
Y11315D1*
X93190Y10940D1*
X96065D1*
X99440Y8440D2*
Y8065D1*
X99315Y7940D1*
X94315D1*
X92315Y9940D1*
Y11565D1*
X98940Y8440D2*
Y8690D1*
X99315Y9065D1*
X104440D1*
X105315Y9940D1*
Y12565D1*
X104940Y12940D1*
X103565D1*
X102690Y12065D1*
X98440Y8440D2*
Y8940D1*
X98815Y9315D1*
X104065D1*
X104940Y10190D1*
Y12440D1*
X104815Y12565D1*
X103940D1*
X103690Y12315D1*
Y11940D1*
X103065Y11315D1*
X102690D1*
X97940Y8440D2*
Y9190D1*
X98440Y9690D1*
X103565D1*
X104190Y10315D1*
Y11815D1*
X104315Y11940D1*
X97440Y8440D2*
Y9690D1*
X97940Y10190D1*
X103065D1*
X103690Y10815D1*
Y11065D1*
X109440Y8440D2*
Y9565D1*
X109065Y9940D1*
Y11690D1*
X109315Y11940D1*
X109815D1*
X108940Y8440D2*
Y9440D1*
X108690Y9690D1*
Y12065D1*
X109190Y12565D1*
X110940D1*
X111315Y12190D1*
Y11565D1*
X108440Y8440D2*
Y8315D1*
X108690Y8065D1*
X109690D1*
X109815Y8190D1*
Y11315D1*
X107940Y8440D2*
Y11690D1*
X109065Y12815D1*
X111190D1*
X111815Y12190D1*
Y11440D1*
X111315Y10940D1*
X110690D1*
X107440Y8440D2*
D15*
Y11065D1*
X106940Y11565D1*
X106190D1*
X106940Y8440D2*
Y7440D1*
X107440Y6940D1*
X112815D1*
X113815Y7940D1*
Y8690D1*
X115690Y10565D1*
Y11690D1*
X116440Y12440D1*
X116815D1*
X106440Y8440D2*
Y7315D1*
X107190Y6565D1*
X112940D1*
X114190Y7815D1*
Y8565D1*
X115565Y9940D1*
X116940D1*
X117690Y10690D1*
Y12065D1*
X118065Y12440D1*
X118315D1*
X117940Y7565D2*
X118565D1*
X118940Y7940D1*
Y12440D1*
X118440Y12940D1*
X118065D1*
X116815Y11690D1*
X118315Y11565D2*
Y9815D1*
X118440Y9690D1*
Y8440D1*
X115440D2*
Y8065D1*
X116315Y7190D1*
X118815D1*
X119440Y7815D1*
Y10565D1*
X120315Y11440D1*
X121565D1*
X26940Y20440D2*
Y21940D1*
X33940Y20340D2*
Y21940D1*
X40840Y20540D2*
Y21840D1*
X40940Y21940D1*
X47940Y20440D2*
Y21940D1*
X55040Y20440D2*
Y21840D1*
X54940Y21940D1*
X61940Y20540D2*
Y21940D1*
X68840Y20540D2*
Y21840D1*
X68940Y21940D1*
X75940Y20440D2*
Y21940D1*
X83040Y20640D2*
Y21840D1*
X82940Y21940D1*
X89940Y20440D2*
Y21940D1*
X97040Y20440D2*
Y21840D1*
X96940Y21940D1*
X104040Y20540D2*
Y21840D1*
X103940Y21940D1*
X111040Y20540D2*
Y21840D1*
X110940Y21940D1*
X117840Y20740D2*
X114840D1*
X113740Y21840D1*
X121565Y15940D2*
X122140D1*
X122540Y16340D1*
Y18140D1*
X121640Y19040D1*
Y23540D1*
X121940Y23840D1*
D35*
X10540Y11640D3*
X18440Y17940D3*
X129440Y7696D3*
X69565Y20440D3*
X70190Y6815D3*
X116690Y5440D3*
X33440Y5340D3*
X42940D3*
X53440Y5440D3*
X63940D3*
X77440D3*
X87940D3*
X98440D3*
X107440D3*
X26940Y20440D3*
X33940Y20340D3*
X40840Y20540D3*
X47940Y20440D3*
X55040D3*
X61940Y20540D3*
X68840D3*
X75940Y20440D3*
X83040Y20640D3*
X89940Y20440D3*
X97040D3*
X104040Y20540D3*
X111040D3*
X117840Y20740D3*
X113740Y21840D3*
X29315Y16440D3*
Y15940D3*
Y15440D3*
Y14940D3*
Y14440D3*
X22315Y16440D3*
Y15940D3*
Y15440D3*
Y14940D3*
Y14440D3*
Y13940D3*
Y13440D3*
Y12940D3*
X85315Y12440D3*
X29315Y13940D3*
Y13440D3*
Y12940D3*
X78315Y12440D3*
X71315D3*
X36315Y12940D3*
Y13440D3*
Y13940D3*
Y14440D3*
Y14940D3*
X16690Y16440D3*
Y15940D3*
Y15440D3*
Y14940D3*
Y14440D3*
Y13940D3*
Y13440D3*
Y12940D3*
X64315Y12440D3*
X36315Y15440D3*
Y15940D3*
Y16440D3*
X43315D3*
X32815Y11940D3*
X43315Y15940D3*
Y15440D3*
Y14940D3*
Y14440D3*
Y13940D3*
Y13440D3*
Y12940D3*
X57315Y12440D3*
X51565Y16440D3*
Y15940D3*
Y15440D3*
Y14940D3*
Y14440D3*
Y13940D3*
Y13440D3*
Y12940D3*
X50315Y12440D3*
X57315Y16440D3*
Y15940D3*
Y15440D3*
Y14940D3*
Y14440D3*
X43315Y12440D3*
X57315Y12940D3*
Y13440D3*
Y13940D3*
X36315Y12440D3*
X64315Y12940D3*
Y13440D3*
Y13940D3*
Y14440D3*
Y14940D3*
Y15440D3*
Y15940D3*
Y16440D3*
X29315Y12440D3*
X71315Y12940D3*
Y13440D3*
Y13940D3*
Y14440D3*
Y14940D3*
Y16440D3*
Y15940D3*
Y15440D3*
X22315Y12440D3*
X78315Y12940D3*
Y13940D3*
Y13440D3*
Y14440D3*
Y14940D3*
Y15440D3*
Y15940D3*
Y16440D3*
X16690Y12440D3*
X85315Y12940D3*
Y13440D3*
Y13940D3*
Y14440D3*
Y16440D3*
Y15940D3*
Y15440D3*
Y14940D3*
X92315Y12440D3*
Y12940D3*
Y13440D3*
Y13940D3*
Y14440D3*
Y14940D3*
Y16440D3*
Y15940D3*
Y15440D3*
X121565Y12440D3*
X100565Y12940D3*
Y13440D3*
Y13940D3*
Y15940D3*
Y15440D3*
Y14940D3*
Y14440D3*
Y16440D3*
X114565Y12440D3*
X107565Y12940D3*
Y13440D3*
Y13940D3*
Y14940D3*
Y14440D3*
Y16440D3*
Y15940D3*
Y15440D3*
X114565Y16440D3*
Y15940D3*
Y15440D3*
Y14940D3*
Y14440D3*
Y13940D3*
Y13440D3*
Y12940D3*
X106315Y12440D3*
X99315D3*
X121565Y12940D3*
Y13440D3*
Y13940D3*
Y14440D3*
Y14940D3*
Y15440D3*
Y15940D3*
Y16440D3*
X33940Y9815D3*
X54565Y10315D3*
X53940Y11940D3*
X45940Y10190D3*
X45315Y9815D3*
X42440D3*
X39690Y11940D3*
X39815Y11440D3*
X36190D3*
X41315Y11065D3*
X44440Y6315D3*
X29190Y11690D3*
X32940Y9565D3*
X22190Y11690D3*
X35315Y9690D3*
X43190Y11940D3*
X54940Y7690D3*
X53440Y8440D3*
X51565Y11440D3*
X57315D3*
X65440Y8440D3*
X64190Y11815D3*
X62190Y9940D3*
X63440Y8065D3*
X63940D3*
X64440D3*
X64940D3*
X67690Y12065D3*
Y11565D3*
X69240Y10940D3*
X68565D3*
X71315Y11565D3*
X74690Y11940D3*
Y11315D3*
X78940Y6315D3*
X76065Y10815D3*
X82690Y10940D3*
X80065Y9065D3*
X79940Y9565D3*
X78140Y8440D3*
X85190Y11815D3*
X89565Y10940D3*
X87940Y8440D3*
X87440D3*
X89440Y7565D3*
X89940Y8440D3*
X78315Y11690D3*
X97440Y8440D3*
X97940D3*
X98440D3*
X98940D3*
X99440D3*
X92315Y11565D3*
X100440Y8440D3*
X99940Y7565D3*
X115440Y8440D3*
X115940D3*
X102690Y12065D3*
Y11315D3*
X104315Y11940D3*
X103690Y11065D3*
X97315Y11940D3*
X96065Y10940D3*
X106440Y8440D3*
X106940D3*
X107440D3*
X107940D3*
X108440D3*
X108940D3*
X109440D3*
X108940Y7565D3*
X116440Y8440D3*
X116940D3*
X106190Y11565D3*
X109815Y11940D3*
Y11315D3*
X111315Y11565D3*
X110690Y10940D3*
X99315Y11565D3*
X117440Y8440D3*
X117940D3*
X118440D3*
X117940Y7565D3*
X118315Y12440D3*
X116815D3*
Y11690D3*
X118315Y11565D3*
X114690Y11440D3*
X121565D3*
X125315Y12940D3*
Y12440D3*
Y11940D3*
Y11440D3*
X15040Y16440D3*
X116790Y22340D3*
X119665Y24090D3*
X132915Y6615D3*
X126690Y7240D3*
X125565Y7115D3*
X17440Y8315D3*
X20440Y7540D3*
X31565Y8815D3*
X40940Y8940D3*
X51940Y8440D3*
X62440Y8140D3*
X75940Y8440D3*
X86440D3*
X96940D3*
X105940D3*
X114940D3*
X64440Y6340D3*
X33940Y7540D3*
X18540Y12340D3*
X18690Y6065D3*
X32940Y6140D3*
X42440Y6240D3*
X53003Y6127D3*
X63440Y6140D3*
X77003Y6127D3*
X87502Y6065D3*
X97878Y6127D3*
X107003Y6065D3*
X116128Y6127D3*
X19877Y7565D3*
X14890Y11465D3*
X14765Y8840D3*
X19315Y5690D3*
X14890Y10028D3*
X14827Y10590D3*
X19752Y6065D3*
X22815Y18440D3*
X29815Y18378D3*
X36815Y18440D3*
X43877Y18378D3*
X50815Y18315D3*
X57877Y18378D3*
X64940D3*
X71878D3*
X79003D3*
X85878D3*
X92815Y18315D3*
X99878D3*
X107003Y18378D3*
X113815Y18315D3*
X120940Y18378D3*
X22127Y20440D3*
X29440Y20502D3*
X36253D3*
X43877Y20440D3*
X50440D3*
X57003Y20377D3*
X64940Y20502D3*
X71690Y20440D3*
X78815D3*
X85565D3*
X92877D3*
X99627Y20502D3*
X106627Y20440D3*
X113503Y20502D3*
X120627Y20440D3*
X31840Y6040D3*
X34540Y5840D3*
X20340Y5540D3*
X41440Y5640D3*
X43940Y5540D3*
X51940D3*
X54540D3*
X62440D3*
X64940D3*
X75740D3*
X78340Y5440D3*
X86240Y5540D3*
X88740Y5440D3*
X96840Y5540D3*
X99540D3*
X105540Y5640D3*
X108440Y5540D3*
X130465Y18640D3*
X117440Y6040D3*
X17440Y5340D3*
X39640Y12540D3*
X32240Y10040D3*
X25640Y12440D3*
X18940Y9740D3*
X19740Y19440D3*
X26240Y20140D3*
X18440Y19940D3*
X25440D3*
X32340Y20040D3*
X33040D3*
X39340Y19940D3*
X40140Y20140D3*
X46540Y19940D3*
X47340Y20240D3*
X53640Y19940D3*
X54440Y20040D3*
X60540Y19840D3*
X61340Y20040D3*
X67540Y19840D3*
X68540Y20040D3*
X74540Y19840D3*
X75340Y19940D3*
X81640D3*
X82540Y20040D3*
X88540Y19840D3*
X89340Y20040D3*
X95540Y19840D3*
X96340Y20040D3*
X102740Y19940D3*
X103440D3*
X109640Y19840D3*
X110440Y20040D3*
X116840D3*
X117540D3*
X123840Y19840D3*
X124640Y20040D3*
X131790Y7740D3*
X132915Y8490D3*
X128315Y22315D3*
X126940Y17815D3*
X131190Y21565D3*
X122315Y20565D3*
X19815Y18440D3*
X24540Y11940D3*
X31140Y12540D3*
X37740D3*
X44840Y18540D3*
X51840Y18740D3*
X59440Y19240D3*
X64240Y19940D3*
X117640Y23440D3*
X120740Y24540D3*
X115440Y23740D3*
X121940Y23840D3*
X131690Y11415D3*
X126740Y8340D3*
X130490Y9615D3*
X125740Y18140D3*
X77940Y6240D3*
D22*
X18315Y23065D3*
D24*
X17315D3*
D22*
X128440Y5240D3*
D24*
X129440D3*
D25*
X15214Y6215D3*
D27*
X13836D3*
X12458D3*
X11080D3*
X9702D3*
D28*
X11940Y12940D3*
Y15940D3*
Y17940D3*
Y19940D3*
X8940D3*
Y17940D3*
Y15940D3*
Y12940D3*
D22*
X124440Y22240D3*
D24*
X123440D3*
D22*
X26940Y21940D3*
D24*
X25940D3*
D22*
X33940D3*
D24*
X32940D3*
D22*
X40940D3*
D24*
X39940D3*
D22*
X47940D3*
D24*
X46940D3*
D22*
X54940D3*
D24*
X53940D3*
D22*
X61940D3*
D24*
X60940D3*
D22*
X68940D3*
D24*
X67940D3*
D22*
X75940D3*
D24*
X74940D3*
D22*
X82940D3*
D24*
X81940D3*
D22*
X89940D3*
D24*
X88940D3*
D22*
X96940D3*
D24*
X95940D3*
D22*
X103940D3*
D24*
X102940D3*
D22*
X110940D3*
D24*
X109940D3*
D22*
X23940D3*
D24*
X22940D3*
D22*
X30440D3*
D24*
X29440D3*
D22*
X37440D3*
D24*
X36440D3*
D22*
X44440D3*
D24*
X43440D3*
D22*
X51440D3*
D24*
X50440D3*
D22*
X58440D3*
D24*
X57440D3*
D22*
X65440D3*
D24*
X64440D3*
D22*
X72440D3*
D24*
X71440D3*
D22*
X79440D3*
D24*
X78440D3*
D22*
X86440D3*
D24*
X85440D3*
D22*
X93440D3*
D24*
X92440D3*
D22*
X100440D3*
D24*
X99440D3*
D22*
X107440D3*
D24*
X106440D3*
D22*
X12815Y22940D3*
D24*
X11815D3*
X5440Y6940D3*
M02*
