G04 DipTrace 2.4.0.1*
%INTop.gbr*%
%MOIN*%
%ADD13C,0.02*%
%ADD14C,0.015*%
%ADD15C,0.013*%
%ADD16C,0.01*%
%ADD18R,0.0591X0.0512*%
%ADD19R,0.0394X0.0433*%
%ADD20R,0.0512X0.0591*%
%ADD21R,0.0433X0.0394*%
%ADD22R,0.0669X0.0669*%
%ADD24C,0.0669*%
%ADD25R,0.0906X0.0906*%
%ADD27C,0.0906*%
%ADD28O,0.1387X0.06*%
%ADD31R,0.0256X0.0413*%
%ADD32R,0.0236X0.0787*%
%ADD33R,0.0787X0.0236*%
%ADD34R,0.0236X0.0433*%
%ADD35C,0.04*%
%FSLAX44Y44*%
G04*
G70*
G90*
G75*
G01*
%LNTop*%
%LPD*%
X11840Y11540D2*
D13*
Y12840D1*
X11940Y12940D1*
X10540Y11640D2*
X11740D1*
X11840Y11540D1*
Y9540D2*
D14*
X12240D1*
X12440Y9340D1*
Y7575D1*
X11080Y6215D1*
X11840Y8040D2*
D15*
X11140D1*
X10740Y8440D1*
Y11040D1*
X11840D1*
X9702Y6215D2*
D13*
X9315D1*
X9340Y6240D1*
X7940D1*
X6890Y7290D1*
Y17486D1*
X7267Y17863D1*
X9702Y6215D2*
D14*
Y10402D1*
X10340Y11040D1*
X11840D1*
X16690Y12440D2*
D15*
X15940D1*
X22315D2*
X22940D1*
X29315D2*
X29940D1*
X36315D2*
X36940D1*
X43315D2*
X43940D1*
X50315D2*
X50940D1*
X57315D2*
X57940D1*
X85315D2*
X85940D1*
X78315D2*
X78940D1*
X71315D2*
X71940D1*
X64315D2*
X64940D1*
X99315D2*
X99940D1*
X106315D2*
X106940D1*
X114565D2*
X113940D1*
X121565D2*
X120940D1*
X92315D2*
X92940D1*
X22315D2*
X22140D1*
X21940Y12640D1*
Y17065D1*
X22065Y17190D1*
X29315Y12440D2*
X29140D1*
X28840Y12740D1*
Y16840D1*
X29140Y17140D1*
X36315Y12440D2*
X36140D1*
X35940Y12640D1*
Y17065D1*
X36065Y17190D1*
X43315Y12440D2*
X43240D1*
X42940Y12740D1*
Y17040D1*
X43140Y17240D1*
X50315Y12440D2*
Y17065D1*
X50140Y17240D1*
X57315Y12440D2*
X57040D1*
X56940Y12540D1*
Y17040D1*
X57140Y17240D1*
X64315Y12440D2*
X64140D1*
X63940Y12640D1*
Y17040D1*
X64140Y17240D1*
X71315Y12440D2*
X71140D1*
X70840Y12740D1*
Y16640D1*
X71040Y16840D1*
Y17140D1*
X71140Y17240D1*
X78315Y12440D2*
X78040D1*
X77940Y12540D1*
Y17040D1*
X78140Y17240D1*
X85315Y12440D2*
X85140D1*
X84940Y12640D1*
Y17065D1*
X85065Y17190D1*
X92315Y12440D2*
X92040D1*
X91840Y12640D1*
Y16965D1*
X92065Y17190D1*
X99315Y12440D2*
Y17065D1*
X99140Y17240D1*
X106315Y12440D2*
Y17065D1*
X106140Y17240D1*
X113940Y12440D2*
X113440D1*
X113340Y12540D1*
Y17040D1*
X113140Y17240D1*
X120940Y12440D2*
X120540D1*
X120340Y12640D1*
Y17040D1*
X120140Y17240D1*
X116790Y22340D2*
Y22842D1*
X132790Y7071D2*
Y6615D1*
X132915D1*
X129313Y18690D2*
X130465D1*
X130565D1*
X130940Y19065D1*
Y19692D1*
X131246Y9615D2*
Y10534D1*
X131040Y10740D1*
X130540D1*
X130665Y6865D2*
X131165D1*
X131540Y6490D1*
X131406Y7098D2*
X131398D1*
X131165Y6865D1*
X119665Y24090D2*
Y23588D1*
X127063Y6615D2*
Y6738D1*
X127690Y7365D1*
Y7865D1*
X125565Y7115D2*
Y7746D1*
X125560D1*
X126690Y7240D2*
Y7738D1*
X127063Y6615D2*
Y6867D1*
X126690Y7240D1*
X114940Y8440D2*
Y9066D1*
X116940Y6940D2*
Y7690D1*
X116815Y7815D1*
X115190D1*
X114940Y8065D1*
Y8440D1*
X105940D2*
Y9066D1*
X107940Y6940D2*
Y7565D1*
X107690Y7815D1*
X106190D1*
X105940Y8065D1*
Y8440D1*
X96940D2*
Y9066D1*
Y8440D2*
Y8065D1*
X97065Y7940D1*
X98565D1*
X98940Y7565D1*
Y6940D1*
X86440Y8440D2*
Y9066D1*
X88440Y6940D2*
Y7565D1*
X88315Y7690D1*
X86690D1*
X86440Y7940D1*
Y8440D1*
X75940D2*
Y9066D1*
X62440Y8140D2*
Y9066D1*
X64440Y6340D2*
Y6940D1*
X51940Y8440D2*
Y9066D1*
X53940Y6940D2*
Y7340D1*
X53740Y7540D1*
X52340D1*
X51940Y7940D1*
Y8440D1*
X40940Y8940D2*
X41314D1*
X41440Y9066D1*
X43440Y6940D2*
Y7340D1*
X43240Y7540D1*
X41240D1*
X40940Y7840D1*
Y8940D1*
X31565Y8815D2*
X31815D1*
X31940Y8940D1*
X33940Y6814D2*
Y7540D1*
X19440Y6814D2*
Y7240D1*
X19040Y7640D1*
X17740D1*
X17440Y7940D1*
Y8315D1*
Y8940D1*
X15040Y16440D2*
Y17165D1*
X15065Y17190D1*
X124565Y19440D2*
X124640D1*
Y20040D1*
X117340Y19440D2*
Y19840D1*
X117540Y20040D1*
X110440Y19440D2*
Y20040D1*
X103440Y19440D2*
Y19940D1*
X96315Y19440D2*
Y20015D1*
X96340Y20040D1*
X89315Y19440D2*
X89340D1*
Y20040D1*
X82440Y19440D2*
X82540D1*
Y20040D1*
X75315Y19440D2*
X75340D1*
Y19940D1*
X68440Y19440D2*
X68540D1*
Y20040D1*
X61315Y19440D2*
Y20015D1*
X61340Y20040D1*
X54440Y19440D2*
Y20040D1*
X47315Y19440D2*
Y20215D1*
X47340Y20240D1*
X40065Y19440D2*
Y20065D1*
X40140Y20140D1*
X33065Y19440D2*
Y20015D1*
X33040Y20040D1*
X26190Y19440D2*
Y20090D1*
X26240Y20140D1*
X19065Y19440D2*
X19740D1*
X13966Y11040D2*
X15340D1*
X17440Y8940D1*
X13966Y8040D2*
X13640D1*
X13340Y8340D1*
Y10940D1*
X13440Y11040D1*
X13966D1*
X130465Y18640D2*
Y18690D1*
X127690Y22190D2*
X128190D1*
X128315Y22315D1*
X116790Y22340D2*
X115915D1*
X115690Y22565D1*
Y22815D1*
X115440Y23065D1*
X115190D1*
X17315D2*
Y22565D1*
X16815Y22065D1*
X15190D1*
X13440Y20315D1*
Y16815D1*
X13065Y16440D1*
X11315D1*
X11065Y16190D1*
Y15690D1*
X11315Y15440D1*
X13190D1*
X13940Y16190D1*
Y20065D1*
X15440Y21565D1*
X18065D1*
X18940Y22440D1*
Y23440D1*
X18815Y23565D1*
X17690D1*
X17315Y23190D1*
Y23065D1*
X132915Y6615D2*
Y6290D1*
X132565Y5940D1*
X131565D1*
X131490Y6015D1*
Y6440D1*
X131540Y6490D1*
X131246Y9615D2*
X130490D1*
X77940Y6240D2*
Y6940D1*
X26640Y13440D2*
X25940D1*
X24940Y12440D1*
Y10815D1*
X23815Y9690D1*
X21940D1*
X20690Y10940D1*
Y13190D1*
X20440Y13440D1*
X19640D1*
X33640D2*
X32065D1*
X31940Y13315D1*
Y10815D1*
X30815Y9690D1*
X29065D1*
X27340Y11415D1*
Y13415D1*
X27315Y13440D1*
X26640D1*
X40640D2*
X39315D1*
X38940Y13065D1*
Y10815D1*
X37815Y9690D1*
X35815D1*
X34690Y10815D1*
Y12940D1*
X34190Y13440D1*
X33640D1*
X47641D2*
X46690D1*
X46315Y13065D1*
Y11440D1*
X44815Y9940D1*
X43065D1*
X41565Y11440D1*
Y13065D1*
X41190Y13440D1*
X40640D1*
X54641D2*
X53815D1*
X53565Y13190D1*
Y10440D1*
X52940Y9815D1*
X49815D1*
X48690Y10940D1*
Y12940D1*
X48190Y13440D1*
X47641D1*
X61641D2*
X60440D1*
X60065Y13065D1*
Y10565D1*
X59440Y9940D1*
X56440D1*
X55690Y10690D1*
Y13190D1*
X55440Y13440D1*
X54641D1*
X68641D2*
X67565D1*
X67190Y13065D1*
Y10315D1*
X66815Y9940D1*
X63440D1*
X62540Y10840D1*
Y13140D1*
X62240Y13440D1*
X61641D1*
X75641D2*
X74565D1*
X74190Y13065D1*
Y10690D1*
X73440Y9940D1*
X70840D1*
X69540Y11240D1*
Y13040D1*
X69140Y13440D1*
X68641D1*
X82641D2*
X81940D1*
X81440Y12940D1*
Y10940D1*
X80440Y9940D1*
X77565D1*
X76640Y10865D1*
Y13240D1*
X76440Y13440D1*
X75641D1*
X89641D2*
X88940D1*
X88565Y13065D1*
Y10565D1*
X87940Y9940D1*
X84565D1*
X83640Y10865D1*
Y13115D1*
X83315Y13440D1*
X82641D1*
X89641D2*
X90565D1*
X90690Y13315D1*
Y10690D1*
X91440Y9940D1*
X94440D1*
X95315Y10815D1*
Y13315D1*
X95440Y13440D1*
X96641D1*
X103641D2*
X102565D1*
X102315Y13190D1*
Y10815D1*
X101440Y9940D1*
X98815D1*
X97815Y10940D1*
Y13190D1*
X97565Y13440D1*
X96641D1*
X110641D2*
X109690D1*
X109440Y13190D1*
Y10565D1*
X108815Y9940D1*
X105315D1*
X104690Y10565D1*
Y13190D1*
X104440Y13440D1*
X103641D1*
X117641D2*
X116815D1*
X116440Y13065D1*
Y10440D1*
X115940Y9940D1*
X112565D1*
X111815Y10690D1*
Y13065D1*
X111440Y13440D1*
X110641D1*
X124641D2*
X123815D1*
X123690Y13315D1*
Y10815D1*
X122815Y9940D1*
X119565D1*
X118815Y10690D1*
Y13065D1*
X118440Y13440D1*
X117641D1*
X19640Y17940D2*
Y18265D1*
X19815Y18440D1*
X19640Y13440D2*
X19065D1*
X18690Y13815D1*
Y17690D1*
X18440Y17940D1*
X62440Y5540D2*
Y6940D1*
X78340Y5440D2*
Y6840D1*
X78440Y6940D1*
X20440Y7540D2*
Y6814D1*
X18540Y12340D2*
Y12640D1*
X18840Y12940D1*
X19640D1*
X34940Y6814D2*
D16*
Y7440D1*
X34440Y7940D1*
X28315D1*
X26565Y9690D1*
Y11365D1*
X26640Y11440D1*
X22940D2*
X22440D1*
X22190Y11690D1*
X35440Y8940D2*
Y9565D1*
X35315Y9690D1*
X20940Y8940D2*
Y10065D1*
X20440Y10565D1*
Y12190D1*
X20190Y12440D1*
X19640D1*
Y13940D2*
D15*
X20690D1*
X21040Y13590D1*
Y11090D1*
X22065Y10065D1*
X23690D1*
X24565Y10940D1*
Y11940D1*
Y12690D1*
X25815Y13940D1*
X26640D1*
X27240D1*
X27640Y13540D1*
Y11615D1*
X29190Y10065D1*
X30690D1*
X31565Y10940D1*
Y13440D1*
X32065Y13940D1*
X33640D1*
X34315D1*
X35040Y13215D1*
Y10965D1*
X35940Y10065D1*
X37690D1*
X38565Y10940D1*
Y13315D1*
X39190Y13940D1*
X40640D1*
X41315D1*
X41940Y13315D1*
Y11565D1*
X43190Y10315D1*
X44690D1*
X45940Y11565D1*
Y13190D1*
X46690Y13940D1*
X47641D1*
X48190D1*
X49065Y13065D1*
Y11190D1*
X50065Y10190D1*
X52690D1*
X53190Y10690D1*
Y13690D1*
X53440Y13940D1*
X54641D1*
X55565D1*
X56040Y13465D1*
Y10840D1*
X56565Y10315D1*
X59190D1*
X59690Y10815D1*
Y13690D1*
X59940Y13940D1*
X61641D1*
X62540D1*
X62940Y13540D1*
Y11065D1*
X63690Y10315D1*
X66565D1*
X66815Y10565D1*
Y13440D1*
X67315Y13940D1*
X68641D1*
X69240D1*
X69840Y13340D1*
Y11340D1*
X70865Y10315D1*
X73190D1*
X73815Y10940D1*
Y13565D1*
X74190Y13940D1*
X75641D1*
X76565D1*
X76940Y13565D1*
Y11190D1*
X77815Y10315D1*
X80190D1*
X81065Y11190D1*
Y13690D1*
X81315Y13940D1*
X82641D1*
X83690D1*
X84040Y13590D1*
Y11090D1*
X84815Y10315D1*
X87690D1*
X88190Y10815D1*
Y13440D1*
X88690Y13940D1*
X89641D1*
X96641D2*
X95315D1*
X94940Y13565D1*
Y10940D1*
X94315Y10315D1*
X91690D1*
X90940Y11065D1*
Y13640D1*
X90640Y13940D1*
X89641D1*
X96641D2*
X97815D1*
X98190Y13565D1*
Y11065D1*
X98940Y10315D1*
X101315D1*
X101940Y10940D1*
Y13565D1*
X102315Y13940D1*
X103641D1*
X104815D1*
X105065Y13690D1*
Y10815D1*
X105565Y10315D1*
X108565D1*
X109065Y10815D1*
Y13690D1*
X109315Y13940D1*
X110641D1*
X111690D1*
X112190Y13440D1*
Y10815D1*
X112690Y10315D1*
X115565D1*
X116065Y10815D1*
Y13440D1*
X116565Y13940D1*
X117641D1*
X118815D1*
X119190Y13565D1*
Y10940D1*
X119815Y10315D1*
X122565D1*
X123190Y10940D1*
Y13440D1*
X123690Y13940D1*
X124641D1*
X24540Y11940D2*
X24565D1*
X26640Y14440D2*
X25690D1*
X24190Y12940D1*
Y11065D1*
X23565Y10440D1*
X22190D1*
X21340Y11290D1*
Y14165D1*
X21065Y14440D1*
X19640D1*
X33640D2*
X32065D1*
X31190Y13565D1*
Y12540D1*
Y11065D1*
X30565Y10440D1*
X29315D1*
X27940Y11815D1*
Y13840D1*
X27340Y14440D1*
X26640D1*
X40640D2*
X39065D1*
X38190Y13565D1*
Y11065D1*
X37565Y10440D1*
X36065D1*
X35340Y11165D1*
Y13915D1*
X34815Y14440D1*
X33640D1*
X40640D2*
X41565D1*
X42315Y13690D1*
Y11690D1*
X43315Y10690D1*
X44565D1*
X45565Y11690D1*
Y13440D1*
X46565Y14440D1*
X47641D1*
X54641D2*
X53315D1*
X52815Y13940D1*
Y10940D1*
X52440Y10565D1*
X50190D1*
X49440Y11315D1*
Y13190D1*
X48190Y14440D1*
X47641D1*
X61641D2*
X59690D1*
X59315Y14065D1*
Y10940D1*
X59065Y10690D1*
X56815D1*
X56340Y11165D1*
Y13790D1*
X55690Y14440D1*
X54641D1*
X68641D2*
X67065D1*
X66440Y13815D1*
Y10815D1*
X66315Y10690D1*
X63940D1*
X63240Y11390D1*
Y14040D1*
X62840Y14440D1*
X61641D1*
X75641D2*
X73815D1*
X73440Y14065D1*
Y11190D1*
X72940Y10690D1*
X70940D1*
X70140Y11490D1*
Y13640D1*
X69465Y14315D1*
X68766D1*
X68641Y14440D1*
X82641D2*
X80940D1*
X80690Y14190D1*
Y11440D1*
X79940Y10690D1*
X78065D1*
X77240Y11515D1*
Y13940D1*
X76615Y14565D1*
X75766D1*
X75641Y14440D1*
X89641D2*
X88440D1*
X87815Y13815D1*
Y11065D1*
X87440Y10690D1*
X85065D1*
X84340Y11415D1*
Y13915D1*
X83815Y14440D1*
X82641D1*
X89641D2*
X90840D1*
X91240Y14040D1*
Y11390D1*
X91940Y10690D1*
X94190D1*
X94565Y11065D1*
Y13940D1*
X95065Y14440D1*
X96641D1*
X103641D2*
X102190D1*
X101565Y13815D1*
Y11190D1*
X101065Y10690D1*
X99065D1*
X98565Y11190D1*
Y13940D1*
X98065Y14440D1*
X96641D1*
X103641D2*
X105065D1*
X105440Y14065D1*
Y11065D1*
X105815Y10690D1*
X108315D1*
X108690Y11065D1*
Y13940D1*
X109190Y14440D1*
X110641D1*
X117641D2*
X116315D1*
X115690Y13815D1*
Y11065D1*
X115315Y10690D1*
X112940D1*
X112565Y11065D1*
Y13690D1*
X111815Y14440D1*
X110641D1*
X124641D2*
X123315D1*
X122690Y13815D1*
Y11190D1*
X122190Y10690D1*
X120065D1*
X119565Y11190D1*
Y13940D1*
X119065Y14440D1*
X117641D1*
X31140Y12540D2*
X31190D1*
X26640Y17440D2*
X26340D1*
X25640Y18140D1*
Y18571D1*
X25565Y18646D1*
X26144D1*
X26190Y18692D1*
X19877Y7565D2*
Y6877D1*
X19940Y6814D1*
X14765Y8840D2*
Y9415D1*
X14640Y9540D1*
X13966D1*
X123940Y19315D2*
Y19740D1*
X123840Y19840D1*
X116740Y19440D2*
Y20040D1*
X116840D1*
X109815Y19315D2*
Y19665D1*
X109640Y19840D1*
X102815Y19440D2*
Y19865D1*
X102740Y19940D1*
X95690Y19315D2*
Y19690D1*
X95540Y19840D1*
X88690Y19315D2*
Y19690D1*
X88540Y19840D1*
X81815Y19440D2*
Y19765D1*
X81640Y19940D1*
X74690Y19315D2*
Y19690D1*
X74540Y19840D1*
X67815Y19315D2*
Y19565D1*
X67540Y19840D1*
X60690Y19315D2*
Y19690D1*
X60540Y19840D1*
X53815Y19315D2*
Y19765D1*
X53640Y19940D1*
X46690Y19315D2*
Y19790D1*
X46540Y19940D1*
X39440Y19315D2*
Y19840D1*
X39340Y19940D1*
X32440Y19315D2*
Y19940D1*
X32340Y20040D1*
X25565Y19315D2*
Y19815D1*
X25440Y19940D1*
X18440Y19315D2*
Y19940D1*
X126940Y17815D2*
X127565D1*
X129915Y7696D2*
X130582D1*
X130665Y7613D1*
X116140Y23171D2*
X116009D1*
X115440Y23740D1*
X129915Y7696D2*
X129440D1*
X20940Y6814D2*
Y4940D1*
X32440D1*
X35440D1*
X41846D1*
X44940D1*
X52440D1*
X55440D1*
X62940D1*
X65940D1*
X70190D1*
X76440D1*
X79440D1*
X86940D1*
X89940D1*
X97421D1*
X100440D1*
X106440D1*
X109445D1*
X115440D1*
X117065D1*
X118440Y6315D1*
Y6940D1*
X109445Y4940D2*
Y6935D1*
X109440Y6940D1*
X106440D2*
Y4940D1*
X97421D2*
Y6921D1*
X97440Y6940D1*
X100440D2*
Y4940D1*
X89940Y6940D2*
Y4940D1*
X86940Y6940D2*
Y4940D1*
X76440Y6940D2*
Y4940D1*
X79440Y6940D2*
Y4940D1*
X62940Y6940D2*
Y4940D1*
X65940Y6940D2*
Y4940D1*
X52440Y6940D2*
Y4940D1*
X55440Y6940D2*
Y4940D1*
X41940Y6940D2*
Y5034D1*
X41846Y4940D1*
X44940Y6940D2*
Y4940D1*
X32440Y6814D2*
Y4940D1*
X35440Y6814D2*
Y4940D1*
X115440Y6940D2*
Y4940D1*
X16740Y20340D2*
Y20740D1*
X17127Y21128D1*
X23324D1*
X30537D1*
X37509D1*
X45064D1*
X51725D1*
X58237D1*
X66123D1*
X69619D1*
X72815D1*
X80078D1*
X86878D1*
X94190D1*
X100815D1*
X107940D1*
X114690D1*
X121516D1*
X121815Y20829D1*
Y20440D1*
X114690D2*
Y21128D1*
X107940Y20440D2*
Y21128D1*
X100815Y20440D2*
Y21128D1*
X94190Y20440D2*
Y21128D1*
X86878Y20440D2*
Y21128D1*
X80065Y20440D2*
X80078Y21128D1*
X72815Y20440D2*
Y21128D1*
X66123D2*
Y20498D1*
X66065Y20440D1*
X58237Y21128D2*
Y20455D1*
X58252Y20440D1*
X51725Y21128D2*
Y20475D1*
X51690Y20440D1*
X45064Y21128D2*
Y20441D1*
X45065Y20440D1*
X37509Y21128D2*
Y20509D1*
X37440Y20440D1*
X30537Y21128D2*
Y20468D1*
X30565Y20440D1*
X23324Y21128D2*
Y20449D1*
X23315Y20440D1*
X19315Y5690D2*
X18190D1*
X17940Y5940D1*
Y6814D1*
X14890Y11465D2*
X14615D1*
X14540Y11540D1*
X13966D1*
X69619Y21128D2*
Y20494D1*
X69565Y20440D1*
X70190Y6815D2*
Y4940D1*
X125560Y8494D2*
Y9779D1*
X125646Y9865D1*
X131690Y21190D2*
X131565D1*
X131190Y21565D1*
X121815Y20440D2*
X122190D1*
X122315Y20565D1*
X120290Y23465D2*
X121115D1*
X121516Y23064D1*
Y21128D1*
X125560Y8494D2*
X122894D1*
X121340Y6940D1*
X118440D1*
X20940Y4940D2*
X19740D1*
X19340Y5340D1*
Y5665D1*
X19315Y5690D1*
X82641Y17440D2*
X82240D1*
X81840Y17840D1*
Y18746D1*
X81815Y18771D1*
X82361D1*
X82440Y18692D1*
X20440Y8940D2*
D16*
Y10065D1*
X20190Y10315D1*
Y11815D1*
X20065Y11940D1*
X19640D1*
X19940Y8940D2*
Y10065D1*
X19690Y10315D1*
Y11390D1*
X19640Y11440D1*
X22065Y17938D2*
D15*
X22938D1*
X22940Y17940D1*
X22815Y18440D2*
Y18065D1*
X22940Y17940D1*
X22127Y20440D2*
X22646D1*
X19640Y14940D2*
X21440D1*
X21640Y14740D1*
Y11490D1*
X22315Y10815D1*
X23440D1*
X23815Y11190D1*
Y13190D1*
X25565Y14940D1*
X26640D1*
X27540D1*
X28240Y14240D1*
Y12015D1*
X29440Y10815D1*
X30440D1*
X30815Y11190D1*
Y13690D1*
X32065Y14940D1*
X33640D1*
X35190D1*
X35640Y14490D1*
Y11365D1*
X36190Y10815D1*
X37440D1*
X37815Y11190D1*
Y12540D1*
Y13815D1*
X38940Y14940D1*
X40640D1*
X41815D1*
X42690Y14065D1*
Y11815D1*
X43440Y11065D1*
X44440D1*
X45190Y11815D1*
Y13565D1*
X46565Y14940D1*
X47641D1*
X48190D1*
X49815Y13315D1*
Y11565D1*
X50440Y10940D1*
X52190D1*
X52440Y11190D1*
Y14190D1*
X53190Y14940D1*
X54641D1*
X55815D1*
X56640Y14115D1*
Y11365D1*
X56940Y11065D1*
X58815D1*
X58940Y11190D1*
Y14565D1*
X59315Y14940D1*
X61641D1*
X63240D1*
X63640Y14540D1*
Y11740D1*
X64315Y11065D1*
X65940D1*
X66065Y11190D1*
Y14440D1*
X66565Y14940D1*
X68641D1*
X69440D1*
X70440Y13940D1*
Y11640D1*
X71015Y11065D1*
X72690D1*
X72940Y11315D1*
Y14440D1*
X73440Y14940D1*
X75641D1*
X76840D1*
X77540Y14240D1*
Y11840D1*
X78315Y11065D1*
X79690D1*
X80315Y11690D1*
Y14440D1*
X80815Y14940D1*
X82641D1*
X84190D1*
X84640Y14490D1*
Y11740D1*
X85315Y11065D1*
X87190D1*
X87440Y11315D1*
Y14190D1*
X88190Y14940D1*
X89641D1*
X91140D1*
X91540Y14540D1*
Y11715D1*
X92190Y11065D1*
X93940D1*
X94190Y11315D1*
Y14565D1*
X94565Y14940D1*
X96641D1*
X98315D1*
X98940Y14315D1*
Y11315D1*
X99190Y11065D1*
X100815D1*
X101190Y11440D1*
Y14065D1*
X102065Y14940D1*
X103641D1*
X105315D1*
X105815Y14440D1*
Y11315D1*
X106065Y11065D1*
X108065D1*
X108315Y11315D1*
Y14315D1*
X108940Y14940D1*
X110641D1*
X112315D1*
X112940Y14315D1*
Y11315D1*
X113190Y11065D1*
X115065D1*
X115315Y11315D1*
Y14315D1*
X115940Y14940D1*
X117641D1*
X119190D1*
X119940Y14190D1*
Y11440D1*
X120315Y11065D1*
X121815D1*
X122190Y11440D1*
Y13940D1*
X123190Y14940D1*
X124641D1*
X37740Y12540D2*
X37815D1*
X26640Y15440D2*
X25440D1*
X23940Y16940D1*
Y18565D1*
X23690Y18815D1*
X21690D1*
X21565Y18690D1*
Y16565D1*
X20440Y15440D1*
X19640D1*
X33640D2*
X32065D1*
X30690Y16815D1*
Y18190D1*
X30065Y18815D1*
X29190D1*
X28440Y18065D1*
Y16190D1*
X27690Y15440D1*
X26640D1*
X40640D2*
X38940D1*
X37815Y16565D1*
Y18315D1*
X37315Y18815D1*
X36065D1*
X35565Y18315D1*
Y16315D1*
X34690Y15440D1*
X33640D1*
X47641D2*
X46565D1*
X45065Y16940D1*
Y18315D1*
X44840Y18540D1*
X44565Y18815D1*
X43115D1*
X42565Y18265D1*
Y16690D1*
X41315Y15440D1*
X40640D1*
X54641D2*
X53190D1*
X51940Y16690D1*
Y18065D1*
X51190Y18815D1*
X50015D1*
X49565Y18365D1*
Y16565D1*
X48440Y15440D1*
X47641D1*
X61641D2*
X60065D1*
X58940Y16565D1*
Y18565D1*
X58690Y18815D1*
X57065D1*
X56640Y18390D1*
Y16390D1*
X55690Y15440D1*
X54641D1*
X68641D2*
X67940D1*
X66065Y17315D1*
Y18565D1*
X65815Y18815D1*
X63940D1*
X63565Y18440D1*
Y16565D1*
X62440Y15440D1*
X61641D1*
X75641D2*
X74065D1*
X72940Y16565D1*
Y18690D1*
X72815Y18815D1*
X71065D1*
X70565Y18315D1*
Y16690D1*
X69315Y15440D1*
X68641D1*
X82641D2*
X81565D1*
X80190Y16815D1*
Y18315D1*
X79690Y18815D1*
X78065D1*
X77565Y18315D1*
Y16690D1*
X76315Y15440D1*
X75690D1*
Y15489D1*
X75641Y15440D1*
X89641D2*
X88190D1*
X86940Y16690D1*
Y18440D1*
X86565Y18815D1*
X84815D1*
X84565Y18565D1*
Y16440D1*
X83565Y15440D1*
X82641D1*
X96641D2*
X95565D1*
X93940Y17065D1*
Y18440D1*
X93565Y18815D1*
X91815D1*
X91440Y18440D1*
Y16440D1*
X90440Y15440D1*
X89641D1*
X103641D2*
X102065D1*
X101065Y16440D1*
Y18565D1*
X100815Y18815D1*
X98940D1*
X98540Y18415D1*
Y16290D1*
X97690Y15440D1*
X96641D1*
X110641D2*
X108940D1*
X108065Y16315D1*
Y18440D1*
X107690Y18815D1*
X105940D1*
X105565Y18440D1*
Y16440D1*
X104565Y15440D1*
X103641D1*
X110641D2*
X112315D1*
X112565Y15690D1*
Y18265D1*
X113115Y18815D1*
X114690D1*
X115190Y18315D1*
Y16940D1*
X116690Y15440D1*
X117641D1*
X124641D2*
X123065D1*
X122190Y16315D1*
Y17940D1*
X121315Y18815D1*
X119715D1*
X119540Y18640D1*
Y16415D1*
X118565Y15440D1*
X117641D1*
X44840Y18540D2*
D3*
X19640Y15940D2*
X20440D1*
X21190Y16690D1*
Y18815D1*
X21565Y19190D1*
X23815D1*
X24315Y18690D1*
Y17315D1*
X25690Y15940D1*
X26640D1*
X27440D1*
X28065Y16565D1*
Y18315D1*
X28940Y19190D1*
X30190D1*
X31065Y18315D1*
Y16940D1*
X32065Y15940D1*
X33640D1*
X34690D1*
X35190Y16440D1*
Y18440D1*
X35940Y19190D1*
X37565D1*
X38190Y18565D1*
Y16815D1*
X39065Y15940D1*
X40640D1*
X41190D1*
X42190Y16940D1*
Y18490D1*
X42890Y19190D1*
X44815D1*
X45440Y18565D1*
Y17190D1*
X46690Y15940D1*
X47641D1*
X48315D1*
X49190Y16815D1*
Y18590D1*
X49790Y19190D1*
X51440D1*
X51865Y18765D1*
X52315Y18315D1*
Y16940D1*
X53315Y15940D1*
X54641D1*
X55565D1*
X56240Y16615D1*
Y18615D1*
X56815Y19190D1*
X58815D1*
X59315Y18690D1*
Y16815D1*
X60190Y15940D1*
X61641D1*
X62440D1*
X63190Y16690D1*
Y18565D1*
X63815Y19190D1*
X65940D1*
X66440Y18690D1*
Y17565D1*
X68065Y15940D1*
X68641D1*
X69315D1*
X70190Y16815D1*
Y18440D1*
X70940Y19190D1*
X72940D1*
X73315Y18815D1*
Y16815D1*
X74190Y15940D1*
X75641D1*
X76315D1*
X77190Y16815D1*
Y18565D1*
X77815Y19190D1*
X79940D1*
X80565Y18565D1*
Y17065D1*
X81690Y15940D1*
X82641D1*
X83440D1*
X84190Y16690D1*
Y18690D1*
X84690Y19190D1*
X86815D1*
X87315Y18690D1*
Y16815D1*
X88190Y15940D1*
X89641D1*
X90315D1*
X91065Y16690D1*
Y18690D1*
X91565Y19190D1*
X93815D1*
X94315Y18690D1*
Y17315D1*
X95690Y15940D1*
X96641D1*
X97565D1*
X98140Y16515D1*
Y18640D1*
X98690Y19190D1*
X101065D1*
X101440Y18815D1*
Y16690D1*
X102190Y15940D1*
X103641D1*
X104440D1*
X105190Y16690D1*
Y18565D1*
X105815Y19190D1*
X107815D1*
X108440Y18565D1*
Y16565D1*
X109065Y15940D1*
X110641D1*
X117641D2*
X116815D1*
X115565Y17190D1*
Y18440D1*
X114815Y19190D1*
X112940D1*
X112190Y18440D1*
Y16315D1*
X111815Y15940D1*
X110641D1*
X117641D2*
X118440D1*
X119190Y16690D1*
Y18790D1*
X119590Y19190D1*
X121565D1*
X122565Y18190D1*
Y16690D1*
X123315Y15940D1*
X124641D1*
X51840Y18740D2*
X51865Y18765D1*
X22940Y15440D2*
X22315D1*
X16690D2*
X15940D1*
X29315D2*
X29940D1*
X121565D2*
X120940D1*
X114565D2*
X113940D1*
X107565D2*
X106940D1*
X100565D2*
X99940D1*
X92315D2*
X92940D1*
X85315D2*
X85940D1*
X78315D2*
X78940D1*
X71315D2*
X71940D1*
X64315D2*
X64940D1*
X57315D2*
X57940D1*
X51565D2*
X50940D1*
X43315D2*
X43940D1*
X36315D2*
X36940D1*
X74690Y11940D2*
D16*
Y12565D1*
X75065Y12940D1*
X75641D1*
X78940Y6315D2*
Y6940D1*
X74690Y11315D2*
X75065Y11690D1*
Y12315D1*
X75190Y12440D1*
X75641D1*
X79440Y9066D2*
X80064D1*
X80065Y9065D1*
X19440Y8940D2*
Y10690D1*
X18690Y11440D1*
X15940D1*
X26640Y12940D2*
D15*
X26140D1*
X25640Y12440D1*
X18940Y8940D2*
Y9740D1*
X18440Y8940D2*
D16*
Y8565D1*
X18690Y8315D1*
X21190D1*
X22190Y9315D1*
X23940D1*
X25315Y10690D1*
Y11415D1*
X26340Y12440D1*
X26640D1*
Y11940D2*
X26240D1*
X25690Y11390D1*
Y10565D1*
X24065Y8940D1*
X22440D1*
X21440Y7940D1*
X18440D1*
X17940Y8440D1*
Y8940D1*
X34940D2*
Y10065D1*
X34440Y10565D1*
Y12690D1*
X34190Y12940D1*
X33640D1*
X34440Y8940D2*
Y10065D1*
X34190Y10315D1*
Y12315D1*
X34065Y12440D1*
X33640D1*
X39440Y18646D2*
D15*
X40019D1*
X40065Y18692D1*
X40640Y17440D2*
X39840D1*
X39340Y17940D1*
Y18546D1*
X39440Y18646D1*
X19640Y16440D2*
X20190D1*
X20815Y17065D1*
Y18940D1*
X21440Y19565D1*
X24065D1*
X24690Y18940D1*
Y17690D1*
X25940Y16440D1*
X26640D1*
X33640D2*
X32065D1*
X31440Y17065D1*
Y18565D1*
X30440Y19565D1*
X28690D1*
X27690Y18565D1*
Y16815D1*
X27315Y16440D1*
X26640D1*
X40640D2*
X39190D1*
X38565Y17065D1*
Y18815D1*
X37815Y19565D1*
X35815D1*
X34815Y18565D1*
Y16815D1*
X34440Y16440D1*
X33640D1*
X47641D2*
X46815D1*
X45815Y17440D1*
Y18815D1*
X45065Y19565D1*
X42565D1*
X41815Y18815D1*
Y17190D1*
X41065Y16440D1*
X40640D1*
X54641D2*
X53440D1*
X52690Y17190D1*
Y18565D1*
X51690Y19565D1*
X49565D1*
X48815Y18815D1*
Y17065D1*
X48190Y16440D1*
X47641D1*
X61641D2*
X60315D1*
X59690Y17065D1*
Y18940D1*
X59415Y19215D1*
X59065Y19565D1*
X56690D1*
X55840Y18715D1*
Y16840D1*
X55440Y16440D1*
X54641D1*
X68641D2*
X68065D1*
X66815Y17690D1*
Y18940D1*
X66190Y19565D1*
X63690D1*
X62815Y18690D1*
Y16940D1*
X62315Y16440D1*
X61641D1*
X75641D2*
X74315D1*
X73690Y17065D1*
Y18940D1*
X73065Y19565D1*
X70815D1*
X69815Y18565D1*
Y17065D1*
X69190Y16440D1*
X68641D1*
X82641D2*
X81815D1*
X80940Y17315D1*
Y18815D1*
X80190Y19565D1*
X77565D1*
X76815Y18815D1*
Y16940D1*
X76315Y16440D1*
X75641D1*
X89641D2*
X88190D1*
X87690Y16940D1*
Y18940D1*
X87065Y19565D1*
X84565D1*
X83815Y18815D1*
Y16940D1*
X83315Y16440D1*
X82641D1*
X96641D2*
X95815D1*
X94690Y17565D1*
Y18940D1*
X94065Y19565D1*
X91440D1*
X90690Y18815D1*
Y16940D1*
X90190Y16440D1*
X89641D1*
X103641D2*
X102440D1*
X101940Y16940D1*
Y18940D1*
X101315Y19565D1*
X98440D1*
X97740Y18865D1*
Y16740D1*
X97440Y16440D1*
X96641D1*
X110641D2*
X109190D1*
X108815Y16815D1*
Y18815D1*
X108065Y19565D1*
X105690D1*
X104815Y18690D1*
Y16940D1*
X104315Y16440D1*
X103641D1*
X110641D2*
X111315D1*
X111815Y16940D1*
Y18690D1*
X112690Y19565D1*
X115065D1*
X115940Y18690D1*
Y17440D1*
X116940Y16440D1*
X117641D1*
X124641D2*
X123690D1*
X122940Y17190D1*
Y18565D1*
X121940Y19565D1*
X119265D1*
X118815Y19115D1*
Y16940D1*
X118315Y16440D1*
X117641D1*
X59440Y19240D2*
X59415Y19215D1*
X19640Y16940D2*
X19940D1*
X20440Y17440D1*
Y19065D1*
X21315Y19940D1*
X24190D1*
X25065Y19065D1*
Y18065D1*
X26190Y16940D1*
X26640D1*
X27065D1*
X27315Y17190D1*
Y18815D1*
X28440Y19940D1*
X30690D1*
X31815Y18815D1*
Y17315D1*
X32190Y16940D1*
X33640D1*
X34190D1*
X34440Y17190D1*
Y18690D1*
X35690Y19940D1*
X38065D1*
X38940Y19065D1*
Y17315D1*
X39315Y16940D1*
X40640D1*
X40940D1*
X41440Y17440D1*
Y19040D1*
X42340Y19940D1*
X45315D1*
X46190Y19065D1*
Y17690D1*
X46940Y16940D1*
X47641D1*
X48065D1*
X48440Y17315D1*
Y19040D1*
X49340Y19940D1*
X51940D1*
X53065Y18815D1*
Y17440D1*
X53565Y16940D1*
X54641D1*
X55315D1*
X55440Y17065D1*
Y18815D1*
X56565Y19940D1*
X59340D1*
X60065Y19215D1*
Y17315D1*
X60440Y16940D1*
X61641D1*
X62315D1*
X62440Y17065D1*
Y18815D1*
X63565Y19940D1*
X64240D1*
X66315D1*
X67190Y19065D1*
Y17815D1*
X68065Y16940D1*
X68641D1*
X69190D1*
X69440Y17190D1*
Y18690D1*
X70690Y19940D1*
X73190D1*
X74065Y19065D1*
Y17315D1*
X74440Y16940D1*
X75641D1*
X76315D1*
X76440Y17065D1*
Y19065D1*
X77315Y19940D1*
X80440D1*
X81315Y19065D1*
Y17690D1*
X82065Y16940D1*
X82641D1*
X83190D1*
X83440Y17190D1*
Y18940D1*
X84440Y19940D1*
X87315D1*
X88065Y19190D1*
Y17315D1*
X88440Y16940D1*
X89641D1*
X90065D1*
X90315Y17190D1*
Y18940D1*
X91315Y19940D1*
X94440D1*
X95065Y19315D1*
Y17815D1*
X95940Y16940D1*
X96641D1*
X97190D1*
X97340Y17090D1*
Y19090D1*
X98190Y19940D1*
X101440D1*
X102315Y19065D1*
Y17315D1*
X102690Y16940D1*
X103641D1*
X104190D1*
X104440Y17190D1*
Y18815D1*
X105565Y19940D1*
X108315D1*
X109190Y19065D1*
Y17315D1*
X109565Y16940D1*
X110641D1*
X111190D1*
X111440Y17190D1*
Y18940D1*
X112440Y19940D1*
X115190D1*
X116315Y18815D1*
Y17690D1*
X117065Y16940D1*
X117641D1*
X118190D1*
X118440Y17190D1*
Y19340D1*
X119040Y19940D1*
X122190D1*
X123315Y18815D1*
Y17690D1*
X124065Y16940D1*
X124641D1*
X64240Y19940D2*
D3*
X22940Y12940D2*
X22315D1*
X16690D2*
X15940D1*
X29315D2*
X29940D1*
X121565D2*
X120940D1*
X114565D2*
X113940D1*
X107565D2*
X106940D1*
X100565D2*
X99940D1*
X92315D2*
X92940D1*
X85315D2*
X85940D1*
X78315D2*
X78940D1*
X71315D2*
X71940D1*
X64315D2*
X64940D1*
X57315D2*
X57940D1*
X51565D2*
X50940D1*
X43315D2*
X43940D1*
X36315D2*
X36940D1*
X22940Y13440D2*
X22315D1*
X16690D2*
X15940D1*
X29315D2*
X29940D1*
X121565D2*
X120940D1*
X114565D2*
X113940D1*
X107565D2*
X106940D1*
X100565D2*
X99940D1*
X92315D2*
X92940D1*
X85315D2*
X85940D1*
X78315D2*
X78940D1*
X71315D2*
X71940D1*
X64315D2*
X64940D1*
X57315D2*
X57940D1*
X51565D2*
X50940D1*
X43315D2*
X43940D1*
X36315D2*
X36940D1*
X22940Y13940D2*
X22315D1*
X16690D2*
X15940D1*
X29315D2*
X29940D1*
X121565D2*
X120940D1*
X114565D2*
X113940D1*
X107565D2*
X106940D1*
X100565D2*
X99940D1*
X92315D2*
X92940D1*
X85315D2*
X85940D1*
X78315D2*
X78940D1*
X71315D2*
X71940D1*
X64315D2*
X64940D1*
X57315D2*
X57940D1*
X51565D2*
X50940D1*
X43315D2*
X43940D1*
X36315D2*
X36940D1*
X22940Y14440D2*
X22315D1*
X16690D2*
X15940D1*
X29315D2*
X29940D1*
X121565D2*
X120940D1*
X114565D2*
X113940D1*
X107565D2*
X106940D1*
X100565D2*
X99940D1*
X92315D2*
X92940D1*
X85315D2*
X85940D1*
X78315D2*
X78940D1*
X71315D2*
X71940D1*
X64315D2*
X64940D1*
X57315D2*
X57940D1*
X51565D2*
X50940D1*
X43315D2*
X43940D1*
X36315D2*
X36940D1*
X22940Y14940D2*
X22315D1*
X16690D2*
X15940D1*
X29315D2*
X29940D1*
X121565D2*
X120940D1*
X114565D2*
X113940D1*
X107565D2*
X106940D1*
X100565D2*
X99940D1*
X92315D2*
X92940D1*
X85315D2*
X85940D1*
X78315D2*
X78940D1*
X71315D2*
X71940D1*
X64315D2*
X64940D1*
X57315D2*
X57940D1*
X51565D2*
X50940D1*
X43315D2*
X43940D1*
X36315D2*
X36940D1*
X131780Y7098D2*
X132154D1*
X132288Y6490D2*
Y6964D1*
X132154Y7098D1*
X131780D2*
Y7730D1*
X131790Y7740D1*
X132915Y8490D2*
Y9071D1*
X132709D1*
X132165Y9615D1*
X131915D1*
X132790Y7740D2*
Y7865D1*
X132540Y8115D1*
X132200D1*
X132154Y8161D1*
X132084Y8740D2*
Y8231D1*
X132154Y8161D1*
X127064Y7738D2*
Y8116D1*
X126940Y8240D1*
X126740D1*
X126440D1*
X126316Y8116D1*
Y7738D1*
X126315Y6615D2*
Y7738D1*
X126316D1*
X132666Y11740D2*
X132015D1*
X131690Y11415D1*
X126740Y8340D2*
Y8240D1*
X128440Y5240D2*
D14*
X126640D1*
X126240Y5640D1*
Y6540D1*
X126315Y6615D1*
X127690Y8534D2*
D15*
Y8615D1*
X127440Y8865D1*
X127128D1*
X127064Y8801D1*
Y9285D1*
X126984Y9365D1*
X36065Y17938D2*
X36938D1*
X36940Y17940D1*
X36815Y18440D2*
Y18127D1*
X36877Y18065D1*
Y18002D1*
X36940Y17940D1*
X36253Y20502D2*
X36708D1*
X36771Y20440D1*
X60690Y18646D2*
X61269D1*
X61315Y18692D1*
X61641Y17440D2*
X61140D1*
X60640Y17940D1*
Y18596D1*
X60690Y18646D1*
X57140Y17988D2*
X57892D1*
X57940Y17940D1*
X57877Y18378D2*
Y18003D1*
X57940Y17940D1*
X57583Y20440D2*
X57065D1*
X57003Y20377D1*
X32815Y11940D2*
D16*
X33640D1*
X33940Y8940D2*
Y9815D1*
X33440Y8940D2*
Y10190D1*
X33690Y10440D1*
Y11390D1*
X33640Y11440D1*
X76065Y10815D2*
X76315Y11065D1*
Y11690D1*
X76065Y11940D1*
X75641D1*
X78940Y9066D2*
Y9565D1*
X79065Y9690D1*
X79815D1*
X79940Y9565D1*
X82690Y10940D2*
Y11391D1*
X82641Y11440D1*
X89440Y7565D2*
Y6940D1*
X43440Y9066D2*
Y8565D1*
X43565Y8440D1*
X45065D1*
X46565Y9940D1*
Y12315D1*
X47190Y12940D1*
X47641D1*
X42940Y9066D2*
Y8440D1*
X43140Y8240D1*
X45365D1*
X46815Y9690D1*
Y12065D1*
X47190Y12440D1*
X47641D1*
X42440Y9066D2*
Y8315D1*
X42715Y8040D1*
X45665D1*
X47065Y9440D1*
Y11815D1*
X47190Y11940D1*
X47641D1*
X54940Y9066D2*
Y9940D1*
X55190Y10190D1*
Y12190D1*
X54940Y12440D1*
X54641D1*
X54440Y9066D2*
Y10190D1*
X54565Y10315D1*
X53940Y11940D2*
X54641D1*
X52940Y9066D2*
Y8315D1*
X53190Y8065D1*
X53690D1*
X54065Y8440D1*
X55690D1*
X55940Y8690D1*
Y9315D1*
X56315Y9690D1*
X59815D1*
X60440Y10315D1*
Y12690D1*
X60690Y12940D1*
X61641D1*
Y12440D2*
X60940D1*
X60815Y12315D1*
Y10190D1*
X60065Y9440D1*
X56440D1*
X56190Y9190D1*
Y8565D1*
X55815Y8190D1*
X54190D1*
X53815Y7815D1*
X53065D1*
X52440Y8440D1*
Y9066D1*
X32440Y18646D2*
D15*
X33019D1*
X33065Y18692D1*
X33640Y17440D2*
X32840D1*
X32440Y17840D1*
Y18646D1*
X65440Y6940D2*
D16*
Y7440D1*
X65190Y7690D1*
X61690D1*
X61065Y8315D1*
Y11815D1*
X61190Y11940D1*
X61641D1*
X65940Y9066D2*
Y9565D1*
X65815Y9690D1*
X63190D1*
X61690Y11190D1*
Y11391D1*
X61641Y11440D1*
X29140Y17888D2*
D15*
X29888D1*
X29940Y17940D1*
X29815Y18378D2*
Y18065D1*
X29940Y17940D1*
X29440Y20502D2*
X29833D1*
X29896Y20440D1*
X31840Y6040D2*
Y6714D1*
X31940Y6814D1*
X43940Y5540D2*
Y6940D1*
X89940Y8440D2*
D16*
Y9066D1*
X78315Y11690D2*
X78440D1*
X78690Y11440D1*
X78940D1*
X68641Y17440D2*
D15*
X68240D1*
X67740Y17940D1*
Y18571D1*
X67815Y18646D1*
X68440Y18692D2*
X67861D1*
X67815Y18646D1*
X75641Y11440D2*
D16*
X75440Y11239D1*
Y10690D1*
X76440Y9690D1*
X78315D1*
X78440Y9565D1*
Y9066D1*
X64140Y17988D2*
D15*
X64892D1*
X64940Y17940D1*
Y18378D2*
Y17940D1*
Y20502D2*
X65333D1*
X65396Y20440D1*
X46690Y18646D2*
X47269D1*
X47315Y18692D1*
X47641Y17440D2*
X47240D1*
X46840Y17840D1*
Y18496D1*
X46690Y18646D1*
X71940Y11440D2*
D16*
X71440D1*
X71315Y11565D1*
X77940Y9066D2*
Y8640D1*
X78140Y8440D1*
Y17988D2*
D15*
X78892D1*
X78940Y17940D1*
X79003Y18378D2*
Y18003D1*
X78940Y17940D1*
X79396Y20440D2*
X78815D1*
X43140Y17988D2*
X43892D1*
X43940Y17940D1*
X43877Y18378D2*
Y18003D1*
X43940Y17940D1*
X43877Y20440D2*
X44396D1*
X54440Y18692D2*
X53861D1*
X53815Y18646D1*
X54641Y17440D2*
X54340D1*
X53840Y17940D1*
Y18621D1*
X53815Y18646D1*
X50140Y17988D2*
X50892D1*
X50940Y17940D1*
X50815Y18315D2*
Y18127D1*
X50753Y18065D1*
X50815D1*
X50940Y17940D1*
X50440Y20440D2*
X51021D1*
X130540Y11240D2*
X129943D1*
X129793Y11090D1*
X29940Y11440D2*
D16*
X29440D1*
X29190Y11690D1*
X32940Y8940D2*
Y9565D1*
X39640Y12540D2*
D15*
X40040Y12940D1*
X40640D1*
X32440Y8940D2*
Y9840D1*
X32240Y10040D1*
X40640Y12440D2*
D16*
X41065D1*
X41315Y12190D1*
Y11065D1*
X44440Y6315D2*
Y6940D1*
X44940Y9066D2*
X45316D1*
X46065Y9815D1*
Y10065D1*
X45940Y10190D1*
X39690Y11940D2*
X40640D1*
X44440Y9066D2*
Y9565D1*
X44565Y9690D1*
X45190D1*
X45315Y9815D1*
X39815Y11440D2*
X40640D1*
X43940Y9066D2*
Y9565D1*
X43815Y9690D1*
X42565D1*
X42440Y9815D1*
X36190Y11440D2*
X36940D1*
X123440Y22240D2*
D15*
Y22940D1*
X123740Y23240D1*
X125340D1*
X125405Y23175D1*
X74690Y18646D2*
X75269D1*
X75315Y18692D1*
X75641Y17440D2*
X74840D1*
X74540Y17740D1*
Y18496D1*
X74690Y18646D1*
X71140Y17988D2*
X71892D1*
X71940Y17940D1*
X71878Y18378D2*
Y18002D1*
X71940Y17940D1*
X71690Y20440D2*
X72146D1*
X96641Y17440D2*
X96140D1*
X95740Y17840D1*
Y18596D1*
X95690Y18646D1*
X96269D1*
X96315Y18692D1*
X92065Y17938D2*
X92938D1*
X92940Y17940D1*
X92815Y18315D2*
Y18065D1*
X92940Y17940D1*
X92877Y20440D2*
X93521D1*
X117641Y17440D2*
X117240D1*
X116740Y17940D1*
Y18771D1*
X117261D1*
X117340Y18692D1*
X113140Y17988D2*
X113892D1*
X113940Y17940D1*
Y18190D1*
X113815Y18315D1*
X114021Y20440D2*
X113565D1*
X113503Y20502D1*
X89641Y17440D2*
X89240D1*
X88640Y18040D1*
Y18596D1*
X88690Y18646D1*
X89269D1*
X89315Y18692D1*
X85065Y17938D2*
X85938D1*
X85940Y17940D1*
X85878Y18378D2*
Y18002D1*
X85940Y17940D1*
X85565Y20440D2*
X86208D1*
X130940D2*
X129941D1*
X130940D2*
X131609D1*
X131690Y20521D1*
X126690Y19984D2*
X127771D1*
X127815Y19940D1*
X129941D2*
X129315D1*
X128815Y20440D1*
X127815D1*
X127190D1*
X126940Y20690D1*
X127021Y22190D2*
Y21519D1*
X126940Y21438D1*
X126075Y23175D2*
X126605D1*
X126940Y22840D1*
Y22271D1*
X127021Y22190D1*
X128565Y18690D2*
X128190D1*
X127815Y19065D1*
Y19440D1*
X128234Y17815D2*
X128315D1*
X128565Y18065D1*
Y18690D1*
X41940Y9066D2*
D16*
Y8315D1*
X42415Y7840D1*
X45965D1*
X47815Y9690D1*
Y11266D1*
X47641Y11440D1*
X43940D2*
X43565D1*
X43190Y11815D1*
Y11940D1*
X54940Y7690D2*
Y6940D1*
X55440Y9066D2*
Y12565D1*
X55065Y12940D1*
X54641D1*
X118440Y22189D2*
D15*
Y22615D1*
X118665Y22840D1*
X119665D1*
X120246D1*
X120290Y22796D1*
X116790Y23590D2*
Y23965D1*
X117040Y24215D1*
X117340D1*
X117440Y24315D1*
X116140Y23840D2*
X116790D1*
Y23590D1*
X53940Y9066D2*
D16*
Y10440D1*
X54565Y11065D1*
Y11364D1*
X54641Y11440D1*
X53440Y8440D2*
Y9066D1*
X51565Y11440D2*
X50940D1*
X117640Y23440D2*
D15*
X117740D1*
X117940Y23640D1*
Y24315D1*
X120771Y24065D2*
Y24509D1*
X120740Y24540D1*
X117940Y22189D2*
Y22740D1*
X118415Y23215D1*
Y24290D1*
X118440Y24315D1*
X117940Y22189D2*
Y21690D1*
X117815Y21565D1*
X116565D1*
X115190D2*
X115817D1*
X115190D2*
Y22396D1*
X18440Y18646D2*
X19019D1*
X19065Y18692D1*
X19640Y17440D2*
X19340D1*
X18940Y17840D1*
Y18567D1*
X19065Y18692D1*
X57315Y11440D2*
D16*
X57940D1*
X65440Y8440D2*
Y9066D1*
X64940D2*
Y8065D1*
X67690Y12065D2*
Y12565D1*
X68065Y12940D1*
X68641D1*
X64440Y8065D2*
Y9066D1*
X67690Y11565D2*
X67815D1*
X68065Y11815D1*
Y12315D1*
X68190Y12440D1*
X68641D1*
X63940Y9066D2*
Y8065D1*
X69240Y10940D2*
Y11890D1*
X69190Y11940D1*
X68641D1*
X63440Y8065D2*
Y9066D1*
X68565Y10940D2*
Y11364D1*
X68641Y11440D1*
X64940D2*
X64565D1*
X64190Y11815D1*
X62940Y9066D2*
Y9440D1*
X62440Y9940D1*
X62190D1*
X18940Y6814D2*
D15*
Y6502D1*
X19252Y6190D1*
X19627D1*
X19752Y6065D1*
X116690Y5440D2*
Y6690D1*
X116440Y6940D1*
X33440Y6814D2*
Y5340D1*
X42940Y6940D2*
Y5340D1*
X53440Y6940D2*
Y5440D1*
X63940Y6940D2*
Y5440D1*
X77440Y6940D2*
Y5440D1*
X87940Y6940D2*
Y5440D1*
X98440Y6940D2*
Y5440D1*
X107440Y6940D2*
Y5440D1*
X13966Y10540D2*
X14777D1*
X14827Y10590D1*
X18440Y6814D2*
Y6315D1*
X18690Y6065D1*
X42440Y6940D2*
Y6240D1*
X32940Y6814D2*
Y6140D1*
X63440Y6940D2*
Y6140D1*
X76940Y6940D2*
Y6440D1*
X77003Y6377D1*
Y6127D1*
X87440Y6940D2*
Y6127D1*
X87502Y6065D1*
X97940Y6940D2*
Y6190D1*
X97878Y6127D1*
X106940Y6940D2*
Y6128D1*
X107003Y6065D1*
X53003Y6127D2*
Y6877D1*
X52940Y6940D1*
X116128Y6127D2*
Y6252D1*
X115940Y6440D1*
Y6940D1*
X13966Y10040D2*
X14878D1*
X14890Y10028D1*
X77440Y9066D2*
D16*
Y8540D1*
X77940Y8040D1*
X79665D1*
X81815Y10190D1*
Y12690D1*
X82065Y12940D1*
X82641D1*
X34540Y5840D2*
D15*
Y6714D1*
X34440Y6814D1*
X17440D2*
Y5340D1*
X15065Y17938D2*
X15938D1*
X15940Y17940D1*
Y20209D1*
X16071Y20340D1*
X41440Y5640D2*
Y6940D1*
X54540Y5540D2*
Y6840D1*
X54440Y6940D1*
X51940Y5540D2*
Y6940D1*
X64940Y5540D2*
Y6940D1*
X76940Y9066D2*
D16*
Y8540D1*
X77640Y7840D1*
X79965D1*
X82065Y9940D1*
Y12315D1*
X82190Y12440D1*
X82641D1*
X76440Y9066D2*
Y8540D1*
X77340Y7640D1*
X80140D1*
X83315Y10815D1*
Y11815D1*
X83190Y11940D1*
X82641D1*
X89440Y9066D2*
Y9565D1*
X89815Y9940D1*
X90190D1*
X90440Y10190D1*
Y12690D1*
X90190Y12940D1*
X89641D1*
Y12440D2*
X90065D1*
X90190Y12315D1*
Y10315D1*
X90065Y10190D1*
X89440D1*
X88940Y9690D1*
Y9066D1*
X88440D2*
Y9815D1*
X88940Y10315D1*
Y11815D1*
X89065Y11940D1*
X89641D1*
X89565Y10940D2*
Y11364D1*
X89641Y11440D1*
X87940Y9066D2*
Y8565D1*
X87877Y8503D1*
X87940Y8440D1*
X124641Y17440D2*
D15*
X124240D1*
X123840Y17840D1*
Y18546D1*
X123940Y18646D1*
X124519D1*
X124565Y18692D1*
X120140Y17988D2*
X120892D1*
X120940Y17940D1*
Y18378D2*
Y17940D1*
X120627Y20440D2*
X121146D1*
X103641Y17440D2*
X103040D1*
X102840Y17640D1*
Y18746D1*
X102815Y18771D1*
X103361D1*
X103440Y18692D1*
X99140Y17988D2*
X99892D1*
X99940Y17940D1*
X99878Y18315D2*
Y18002D1*
X99940Y17940D1*
X99627Y20502D2*
X100083D1*
X100146Y20440D1*
X110641Y17440D2*
X110040D1*
X109640Y17840D1*
Y18471D1*
X109815Y18646D1*
X110394D1*
X110440Y18692D1*
X106140Y17988D2*
X106892D1*
X106940Y17940D1*
X107003Y18378D2*
Y18003D1*
X106940Y17940D1*
X107271Y20440D2*
X106627D1*
X85940Y11440D2*
D16*
X85565D1*
X85190Y11815D1*
X87440Y8440D2*
Y9066D1*
X86940D2*
Y8315D1*
X87190Y8065D1*
X90265D1*
X91765Y9565D1*
X94565D1*
X95690Y10690D1*
Y12690D1*
X95940Y12940D1*
X96641D1*
X99940Y7565D2*
Y6940D1*
X96641Y12440D2*
X96190D1*
X95940Y12190D1*
Y11065D1*
X96065Y10940D1*
X100440Y8440D2*
Y9066D1*
X97315Y11940D2*
X96641D1*
X99940Y9066D2*
Y9565D1*
X99815Y9690D1*
X97690D1*
X96690Y10690D1*
Y11391D1*
X96641Y11440D1*
X99440Y8440D2*
Y9066D1*
X92940Y11440D2*
X92440D1*
X92315Y11565D1*
X98940Y8440D2*
Y9066D1*
X102690Y12065D2*
Y12690D1*
X102940Y12940D1*
X103641D1*
X98440Y8440D2*
Y9066D1*
X102690Y11315D2*
X103065Y11690D1*
Y12315D1*
X103190Y12440D1*
X103641D1*
X97940Y8440D2*
Y9066D1*
X104315Y11940D2*
X103641D1*
X97440Y8440D2*
Y9066D1*
X103690Y11065D2*
Y11391D1*
X103641Y11440D1*
X108940Y7565D2*
Y6940D1*
X99940Y11440D2*
X99440D1*
X99315Y11565D1*
X109440Y8440D2*
Y9066D1*
X109815Y11940D2*
Y12815D1*
X109940Y12940D1*
X110641D1*
X108940Y8440D2*
Y9066D1*
X111315Y11565D2*
Y12315D1*
X111190Y12440D1*
X110641D1*
X108440Y8440D2*
Y9066D1*
X109815Y11315D2*
X110315Y11815D1*
X110516D1*
X110641Y11940D1*
X107940Y8440D2*
Y9066D1*
X110690Y10940D2*
Y11391D1*
X110641Y11440D1*
X107440Y8440D2*
Y9066D1*
X106940Y11440D2*
D15*
X106315D1*
X106190Y11565D1*
X106940Y8440D2*
D16*
Y9066D1*
X116815Y12440D2*
D15*
Y12690D1*
X117065Y12940D1*
X117641D1*
X106440Y8440D2*
D16*
Y9066D1*
X118315Y12440D2*
D15*
X117641D1*
X116815Y11690D2*
X116940D1*
X117190Y11940D1*
X117641D1*
X117940Y7565D2*
Y6940D1*
X118315Y11565D2*
X118190Y11440D1*
X117641D1*
X118440Y8440D2*
Y9066D1*
X117940Y8440D2*
Y9066D1*
X114690Y11440D2*
X113940D1*
X117440Y8440D2*
Y9066D1*
X125315Y12940D2*
X124641D1*
X116940Y8440D2*
Y9066D1*
X125315Y12440D2*
X124641D1*
X116440Y8440D2*
Y9066D1*
X125315Y11940D2*
X124641D1*
X115940Y8440D2*
Y9066D1*
X125315Y11440D2*
X124641D1*
X115440Y8440D2*
Y9066D1*
X121565Y11440D2*
X120940D1*
X75740Y5540D2*
Y6740D1*
X75940Y6940D1*
X88740Y5440D2*
Y5640D1*
X88940Y5840D1*
Y6940D1*
X86240Y5540D2*
Y6740D1*
X86440Y6940D1*
X99540Y5540D2*
Y6840D1*
X99440Y6940D1*
X96840Y5540D2*
Y6840D1*
X96940Y6940D1*
X108440Y5540D2*
Y6940D1*
X105540Y5640D2*
Y6540D1*
X105940Y6940D1*
X117440Y6040D2*
Y6940D1*
X130540Y10240D2*
X129974D1*
X129793Y10421D1*
X6893Y18769D2*
D13*
Y18690D1*
X5959D1*
X5940Y18709D1*
Y19690D1*
X7315Y21065D1*
X9315D1*
X10440Y19940D1*
Y14065D1*
X9315Y12940D1*
X8940D1*
X6519Y17863D2*
D15*
X6117D1*
X5940Y18040D1*
X6519Y17863D2*
X5642D1*
X5638Y17859D1*
X5440D1*
X11940Y15940D2*
X13190D1*
X13690Y16440D1*
Y20190D1*
X15315Y21815D1*
X17690D1*
X18190Y22315D1*
Y22940D1*
X18315Y23065D1*
X11940Y19940D2*
Y22815D1*
X11815Y22940D1*
X126316Y8801D2*
Y9365D1*
X126315D1*
Y9865D1*
X131406Y8161D2*
Y8731D1*
X131415Y8740D1*
X129915Y8365D2*
X131202D1*
X131406Y8161D1*
X132915Y9740D2*
Y9991D1*
X132666Y10240D1*
X22940Y16440D2*
X22315D1*
X16690D2*
X15940D1*
X29315D2*
X29940D1*
X120940D2*
X121565D1*
X114565D2*
X113940D1*
X107565D2*
X106940D1*
X100565D2*
X99940D1*
X92315D2*
X92940D1*
X85315D2*
X85940D1*
X78315D2*
X78940D1*
X71315D2*
X71940D1*
X64315D2*
X64940D1*
X57315D2*
X57940D1*
X51565D2*
X50940D1*
X43315D2*
X43940D1*
X36315D2*
X36940D1*
X124641Y17940D2*
X125640D1*
X125690D1*
X126065Y18315D1*
Y18646D1*
X125740Y18140D2*
X125640Y18040D1*
Y17940D1*
X126065Y19315D2*
X126690D1*
X26640Y17940D2*
X26840Y18140D1*
Y20340D1*
X26940Y20440D1*
X33640Y17940D2*
Y18040D1*
X33840Y18240D1*
Y20240D1*
X33940Y20340D1*
X40640Y17940D2*
X40940Y18240D1*
Y20440D1*
X40840Y20540D1*
X47641Y17940D2*
Y17941D1*
X47940Y18240D1*
Y20440D1*
X54641Y17940D2*
X54840D1*
X55040Y18140D1*
Y20440D1*
X61641Y17940D2*
X61740D1*
X61940Y18140D1*
Y20540D1*
X68641Y17940D2*
X68840D1*
X69040Y18140D1*
Y20340D1*
X68840Y20540D1*
X75641Y17940D2*
Y17941D1*
X75940Y18240D1*
Y20440D1*
X82641Y17940D2*
X82840D1*
X83040Y18140D1*
Y20640D1*
X89641Y17940D2*
X89740D1*
X89940Y18140D1*
Y20440D1*
X96641Y17940D2*
X96740D1*
X96940Y18140D1*
Y20340D1*
X97040Y20440D1*
X103641Y17940D2*
X103840D1*
X104040Y18140D1*
Y20540D1*
X110641Y17940D2*
X110740D1*
X111040Y18240D1*
Y20540D1*
X117641Y17940D2*
X117840D1*
X118040Y18140D1*
Y20540D1*
X117840Y20740D1*
X113740Y21840D2*
X114246D1*
X114521Y21565D1*
X5440Y17190D2*
Y6940D1*
X22940Y15940D2*
X22315D1*
X16690D2*
X15940D1*
X29315D2*
X29940D1*
X121565D2*
X120940D1*
X114565D2*
X113940D1*
X107565D2*
X106940D1*
X100565D2*
X99940D1*
X92315D2*
X92940D1*
X85315D2*
X85940D1*
X78315D2*
X78940D1*
X71315D2*
X71940D1*
X64315D2*
X64940D1*
X57315D2*
X57940D1*
X51565D2*
X50940D1*
X43315D2*
X43940D1*
X36315D2*
X36940D1*
X121440Y24065D2*
X121715D1*
X121940Y23840D1*
X12458Y6215D2*
D14*
Y6958D1*
X12740Y7240D1*
Y9840D1*
X12540Y10040D1*
X11840D1*
Y10540D2*
X12840D1*
X13040Y10340D1*
Y8040D1*
X13740Y7340D1*
Y6311D1*
X13836Y6215D1*
D35*
X10540Y11640D3*
X18440Y17940D3*
X129440Y7696D3*
X69565Y20440D3*
X70190Y6815D3*
X116690Y5440D3*
X33440Y5340D3*
X42940D3*
X53440Y5440D3*
X63940D3*
X77440D3*
X87940D3*
X98440D3*
X107440D3*
X26940Y20440D3*
X33940Y20340D3*
X40840Y20540D3*
X47940Y20440D3*
X55040D3*
X61940Y20540D3*
X68840D3*
X75940Y20440D3*
X83040Y20640D3*
X89940Y20440D3*
X97040D3*
X104040Y20540D3*
X111040D3*
X117840Y20740D3*
X113740Y21840D3*
X29315Y16440D3*
Y15940D3*
Y15440D3*
Y14940D3*
Y14440D3*
X22315Y16440D3*
Y15940D3*
Y15440D3*
Y14940D3*
Y14440D3*
Y13940D3*
Y13440D3*
Y12940D3*
X85315Y12440D3*
X29315Y13940D3*
Y13440D3*
Y12940D3*
X78315Y12440D3*
X71315D3*
X36315Y12940D3*
Y13440D3*
Y13940D3*
Y14440D3*
Y14940D3*
X16690Y16440D3*
Y15940D3*
Y15440D3*
Y14940D3*
Y14440D3*
Y13940D3*
Y13440D3*
Y12940D3*
X64315Y12440D3*
X36315Y15440D3*
Y15940D3*
Y16440D3*
X43315D3*
X32815Y11940D3*
X43315Y15940D3*
Y15440D3*
Y14940D3*
Y14440D3*
Y13940D3*
Y13440D3*
Y12940D3*
X57315Y12440D3*
X51565Y16440D3*
Y15940D3*
Y15440D3*
Y14940D3*
Y14440D3*
Y13940D3*
Y13440D3*
Y12940D3*
X50315Y12440D3*
X57315Y16440D3*
Y15940D3*
Y15440D3*
Y14940D3*
Y14440D3*
X43315Y12440D3*
X57315Y12940D3*
Y13440D3*
Y13940D3*
X36315Y12440D3*
X64315Y12940D3*
Y13440D3*
Y13940D3*
Y14440D3*
Y14940D3*
Y15440D3*
Y15940D3*
Y16440D3*
X29315Y12440D3*
X71315Y12940D3*
Y13440D3*
Y13940D3*
Y14440D3*
Y14940D3*
Y16440D3*
Y15940D3*
Y15440D3*
X22315Y12440D3*
X78315Y12940D3*
Y13940D3*
Y13440D3*
Y14440D3*
Y14940D3*
Y15440D3*
Y15940D3*
Y16440D3*
X16690Y12440D3*
X85315Y12940D3*
Y13440D3*
Y13940D3*
Y14440D3*
Y16440D3*
Y15940D3*
Y15440D3*
Y14940D3*
X92315Y12440D3*
Y12940D3*
Y13440D3*
Y13940D3*
Y14440D3*
Y14940D3*
Y16440D3*
Y15940D3*
Y15440D3*
X121565Y12440D3*
X100565Y12940D3*
Y13440D3*
Y13940D3*
Y15940D3*
Y15440D3*
Y14940D3*
Y14440D3*
Y16440D3*
X114565Y12440D3*
X107565Y12940D3*
Y13440D3*
Y13940D3*
Y14940D3*
Y14440D3*
Y16440D3*
Y15940D3*
Y15440D3*
X114565Y16440D3*
Y15940D3*
Y15440D3*
Y14940D3*
Y14440D3*
Y13940D3*
Y13440D3*
Y12940D3*
X106315Y12440D3*
X99315D3*
X121565Y12940D3*
Y13440D3*
Y13940D3*
Y14440D3*
Y14940D3*
Y15440D3*
Y15940D3*
Y16440D3*
X33940Y9815D3*
X54565Y10315D3*
X53940Y11940D3*
X45940Y10190D3*
X45315Y9815D3*
X42440D3*
X39690Y11940D3*
X39815Y11440D3*
X36190D3*
X41315Y11065D3*
X44440Y6315D3*
X29190Y11690D3*
X32940Y9565D3*
X22190Y11690D3*
X35315Y9690D3*
X43190Y11940D3*
X54940Y7690D3*
X53440Y8440D3*
X51565Y11440D3*
X57315D3*
X65440Y8440D3*
X64190Y11815D3*
X62190Y9940D3*
X63440Y8065D3*
X63940D3*
X64440D3*
X64940D3*
X67690Y12065D3*
Y11565D3*
X69240Y10940D3*
X68565D3*
X71315Y11565D3*
X74690Y11940D3*
Y11315D3*
X78940Y6315D3*
X76065Y10815D3*
X82690Y10940D3*
X80065Y9065D3*
X79940Y9565D3*
X78140Y8440D3*
X85190Y11815D3*
X89565Y10940D3*
X87940Y8440D3*
X87440D3*
X89440Y7565D3*
X89940Y8440D3*
X78315Y11690D3*
X97440Y8440D3*
X97940D3*
X98440D3*
X98940D3*
X99440D3*
X92315Y11565D3*
X100440Y8440D3*
X99940Y7565D3*
X115440Y8440D3*
X115940D3*
X102690Y12065D3*
Y11315D3*
X104315Y11940D3*
X103690Y11065D3*
X97315Y11940D3*
X96065Y10940D3*
X106440Y8440D3*
X106940D3*
X107440D3*
X107940D3*
X108440D3*
X108940D3*
X109440D3*
X108940Y7565D3*
X116440Y8440D3*
X116940D3*
X106190Y11565D3*
X109815Y11940D3*
Y11315D3*
X111315Y11565D3*
X110690Y10940D3*
X99315Y11565D3*
X117440Y8440D3*
X117940D3*
X118440D3*
X117940Y7565D3*
X118315Y12440D3*
X116815D3*
Y11690D3*
X118315Y11565D3*
X114690Y11440D3*
X121565D3*
X125315Y12940D3*
Y12440D3*
Y11940D3*
Y11440D3*
X15040Y16440D3*
X116790Y22340D3*
X119665Y24090D3*
X132915Y6615D3*
X126690Y7240D3*
X125565Y7115D3*
X17440Y8315D3*
X20440Y7540D3*
X31565Y8815D3*
X40940Y8940D3*
X51940Y8440D3*
X62440Y8140D3*
X75940Y8440D3*
X86440D3*
X96940D3*
X105940D3*
X114940D3*
X64440Y6340D3*
X33940Y7540D3*
X18540Y12340D3*
X18690Y6065D3*
X32940Y6140D3*
X42440Y6240D3*
X53003Y6127D3*
X63440Y6140D3*
X77003Y6127D3*
X87502Y6065D3*
X97878Y6127D3*
X107003Y6065D3*
X116128Y6127D3*
X19877Y7565D3*
X14890Y11465D3*
X14765Y8840D3*
X19315Y5690D3*
X14890Y10028D3*
X14827Y10590D3*
X19752Y6065D3*
X22815Y18440D3*
X29815Y18378D3*
X36815Y18440D3*
X43877Y18378D3*
X50815Y18315D3*
X57877Y18378D3*
X64940D3*
X71878D3*
X79003D3*
X85878D3*
X92815Y18315D3*
X99878D3*
X107003Y18378D3*
X113815Y18315D3*
X120940Y18378D3*
X22127Y20440D3*
X29440Y20502D3*
X36253D3*
X43877Y20440D3*
X50440D3*
X57003Y20377D3*
X64940Y20502D3*
X71690Y20440D3*
X78815D3*
X85565D3*
X92877D3*
X99627Y20502D3*
X106627Y20440D3*
X113503Y20502D3*
X120627Y20440D3*
X31840Y6040D3*
X34540Y5840D3*
X20340Y5540D3*
X41440Y5640D3*
X43940Y5540D3*
X51940D3*
X54540D3*
X62440D3*
X64940D3*
X75740D3*
X78340Y5440D3*
X86240Y5540D3*
X88740Y5440D3*
X96840Y5540D3*
X99540D3*
X105540Y5640D3*
X108440Y5540D3*
X130465Y18640D3*
X117440Y6040D3*
X17440Y5340D3*
X39640Y12540D3*
X32240Y10040D3*
X25640Y12440D3*
X18940Y9740D3*
X19740Y19440D3*
X26240Y20140D3*
X18440Y19940D3*
X25440D3*
X32340Y20040D3*
X33040D3*
X39340Y19940D3*
X40140Y20140D3*
X46540Y19940D3*
X47340Y20240D3*
X53640Y19940D3*
X54440Y20040D3*
X60540Y19840D3*
X61340Y20040D3*
X67540Y19840D3*
X68540Y20040D3*
X74540Y19840D3*
X75340Y19940D3*
X81640D3*
X82540Y20040D3*
X88540Y19840D3*
X89340Y20040D3*
X95540Y19840D3*
X96340Y20040D3*
X102740Y19940D3*
X103440D3*
X109640Y19840D3*
X110440Y20040D3*
X116840D3*
X117540D3*
X123840Y19840D3*
X124640Y20040D3*
X131790Y7740D3*
X132915Y8490D3*
X128315Y22315D3*
X126940Y17815D3*
X131190Y21565D3*
X122315Y20565D3*
X19815Y18440D3*
X24540Y11940D3*
X31140Y12540D3*
X37740D3*
X44840Y18540D3*
X51840Y18740D3*
X59440Y19240D3*
X64240Y19940D3*
X117640Y23440D3*
X120740Y24540D3*
X115440Y23740D3*
X121940Y23840D3*
X131690Y11415D3*
X126740Y8340D3*
X130490Y9615D3*
X125740Y18140D3*
X77940Y6240D3*
D18*
X119665Y22840D3*
Y23588D3*
X116790Y23590D3*
Y22842D3*
D19*
X126690Y19315D3*
Y19984D3*
D18*
X126940Y20690D3*
Y21438D3*
X26190Y19440D3*
Y18692D3*
X22065Y17190D3*
Y17938D3*
X130940Y20440D3*
Y19692D3*
D20*
X128565Y18690D3*
X129313D3*
D21*
X121440Y24065D3*
X120771D3*
D20*
X116565Y21565D3*
X115817D3*
D18*
X19065Y19440D3*
Y18692D3*
X15065Y17190D3*
Y17938D3*
X40065Y19440D3*
Y18692D3*
X36065Y17190D3*
Y17938D3*
X33065Y19440D3*
Y18692D3*
X29140Y17140D3*
Y17888D3*
X82440Y19440D3*
Y18692D3*
X78140Y17240D3*
Y17988D3*
X61315Y19440D3*
Y18692D3*
X57140Y17240D3*
Y17988D3*
X68440Y19440D3*
Y18692D3*
X64140Y17240D3*
Y17988D3*
X47315Y19440D3*
Y18692D3*
X43140Y17240D3*
Y17988D3*
X54440Y19440D3*
Y18692D3*
X50140Y17240D3*
Y17988D3*
X75315Y19440D3*
Y18692D3*
X71140Y17240D3*
Y17988D3*
X96315Y19440D3*
Y18692D3*
X130665Y6865D3*
Y7613D3*
D20*
X131540Y6490D3*
X132288D3*
D18*
X125560Y8494D3*
Y7746D3*
D20*
X126315Y6615D3*
X127063D3*
D21*
X131915Y9615D3*
X131246D3*
D19*
X129793Y11090D3*
Y10421D3*
D18*
X92065Y17190D3*
Y17938D3*
X89315Y19440D3*
Y18692D3*
X85065Y17190D3*
Y17938D3*
X117340Y19440D3*
Y18692D3*
D19*
X5940Y18040D3*
Y18709D3*
D18*
X113140Y17240D3*
Y17988D3*
X124565Y19440D3*
Y18692D3*
X120140Y17240D3*
Y17988D3*
X103440Y19440D3*
Y18692D3*
X99140Y17240D3*
Y17988D3*
X110440Y19440D3*
Y18692D3*
X106140Y17240D3*
Y17988D3*
D19*
X25565Y19315D3*
Y18646D3*
D21*
X23315Y20440D3*
X22646D3*
X128234Y17815D3*
X127565D3*
D19*
X131690Y21190D3*
Y20521D3*
X116140Y23840D3*
Y23171D3*
X120290Y23465D3*
Y22796D3*
X18440Y19315D3*
Y18646D3*
D21*
X16740Y20340D3*
X16071D3*
D19*
X39440Y19315D3*
Y18646D3*
D21*
X37440Y20440D3*
X36771D3*
D19*
X32440Y19315D3*
Y18646D3*
D21*
X30565Y20440D3*
X29896D3*
D19*
X60690Y19315D3*
Y18646D3*
D21*
X58252Y20440D3*
X57583D3*
D19*
X67815Y19315D3*
Y18646D3*
D21*
X66065Y20440D3*
X65396D3*
D19*
X46690Y19315D3*
Y18646D3*
D21*
X45065Y20440D3*
X44396D3*
D19*
X53815Y19315D3*
Y18646D3*
D21*
X51690Y20440D3*
X51021D3*
D19*
X81815Y19440D3*
Y18771D3*
D21*
X80065Y20440D3*
X79396D3*
D19*
X74690Y19315D3*
Y18646D3*
D21*
X72815Y20440D3*
X72146D3*
D19*
X95690Y19315D3*
Y18646D3*
D21*
X94190Y20440D3*
X93521D3*
D19*
X88690Y19315D3*
Y18646D3*
D21*
X86878Y20440D3*
X86208D3*
D19*
X116740Y19440D3*
Y18771D3*
D21*
X114690Y20440D3*
X114021D3*
D19*
X123940Y19315D3*
Y18646D3*
D21*
X121815Y20440D3*
X121146D3*
D19*
X102815Y19440D3*
Y18771D3*
D21*
X100815Y20440D3*
X100146D3*
D19*
X109815Y19315D3*
Y18646D3*
D21*
X107940Y20440D3*
X107271D3*
X126315Y9865D3*
X125646D3*
D19*
X129915Y8365D3*
Y7696D3*
X132915Y9740D3*
Y9071D3*
D22*
X18315Y23065D3*
D24*
X17315D3*
D22*
X128440Y5240D3*
D24*
X129440D3*
D25*
X15214Y6215D3*
D27*
X13836D3*
X12458D3*
X11080D3*
X9702D3*
D28*
X11940Y12940D3*
Y15940D3*
Y17940D3*
Y19940D3*
X8940D3*
Y17940D3*
Y15940D3*
Y12940D3*
D22*
X124440Y22240D3*
D24*
X123440D3*
D31*
X6519Y17863D3*
X7267D3*
X6893Y18769D3*
D21*
X115190Y21565D3*
X114521D3*
D19*
X115190Y23065D3*
Y22396D3*
D21*
X126075Y23175D3*
X125405D3*
X127690Y22190D3*
X127021D3*
D19*
X132790Y7740D3*
Y7071D3*
D21*
X131415Y8740D3*
X132084D3*
X126315Y9365D3*
X126984D3*
D19*
X127690Y8534D3*
Y7865D3*
X126065Y19315D3*
Y18646D3*
X5440Y17190D3*
Y17859D3*
D22*
X26940Y21940D3*
D24*
X25940D3*
D22*
X33940D3*
D24*
X32940D3*
D22*
X40940D3*
D24*
X39940D3*
D22*
X47940D3*
D24*
X46940D3*
D22*
X54940D3*
D24*
X53940D3*
D22*
X61940D3*
D24*
X60940D3*
D22*
X68940D3*
D24*
X67940D3*
D22*
X75940D3*
D24*
X74940D3*
D22*
X82940D3*
D24*
X81940D3*
D22*
X89940D3*
D24*
X88940D3*
D22*
X96940D3*
D24*
X95940D3*
D22*
X103940D3*
D24*
X102940D3*
D22*
X110940D3*
D24*
X109940D3*
D22*
X23940D3*
D24*
X22940D3*
D22*
X30440D3*
D24*
X29440D3*
D22*
X37440D3*
D24*
X36440D3*
D22*
X44440D3*
D24*
X43440D3*
D22*
X51440D3*
D24*
X50440D3*
D22*
X58440D3*
D24*
X57440D3*
D22*
X65440D3*
D24*
X64440D3*
D22*
X72440D3*
D24*
X71440D3*
D22*
X79440D3*
D24*
X78440D3*
D22*
X86440D3*
D24*
X85440D3*
D22*
X93440D3*
D24*
X92440D3*
D22*
X100440D3*
D24*
X99440D3*
D22*
X107440D3*
D24*
X106440D3*
D22*
X12815Y22940D3*
D24*
X11815D3*
D32*
X118940Y24315D3*
X118440D3*
X117940D3*
X117440D3*
Y22189D3*
X117940D3*
X118440D3*
X118940D3*
D33*
X11840Y11540D3*
Y11040D3*
Y10540D3*
Y10040D3*
Y9540D3*
Y9040D3*
Y8540D3*
Y8040D3*
X13966D3*
Y8540D3*
Y9040D3*
Y9540D3*
Y10040D3*
Y10540D3*
Y11040D3*
Y11540D3*
D32*
X35440Y8940D3*
X34940D3*
X34440D3*
X33940D3*
X33440D3*
X32940D3*
X32440D3*
X31940D3*
Y6814D3*
X32440D3*
X32940D3*
X33440D3*
X33940D3*
X34440D3*
X34940D3*
X35440D3*
X44940Y9066D3*
X44440D3*
X43940D3*
X43440D3*
X42940D3*
X42440D3*
X41940D3*
X41440D3*
Y6940D3*
X41940D3*
X42440D3*
X42940D3*
X43440D3*
X43940D3*
X44440D3*
X44940D3*
X65940Y9066D3*
X65440D3*
X64940D3*
X64440D3*
X63940D3*
X63440D3*
X62940D3*
X62440D3*
Y6940D3*
X62940D3*
X63440D3*
X63940D3*
X64440D3*
X64940D3*
X65440D3*
X65940D3*
X55440Y9066D3*
X54940D3*
X54440D3*
X53940D3*
X53440D3*
X52940D3*
X52440D3*
X51940D3*
Y6940D3*
X52440D3*
X52940D3*
X53440D3*
X53940D3*
X54440D3*
X54940D3*
X55440D3*
X89940Y9066D3*
X89440D3*
X88940D3*
X88440D3*
X87940D3*
X87440D3*
X86940D3*
X86440D3*
Y6940D3*
X86940D3*
X87440D3*
X87940D3*
X88440D3*
X88940D3*
X89440D3*
X89940D3*
X100440Y9066D3*
X99940D3*
X99440D3*
X98940D3*
X98440D3*
X97940D3*
X97440D3*
X96940D3*
Y6940D3*
X97440D3*
X97940D3*
X98440D3*
X98940D3*
X99440D3*
X99940D3*
X100440D3*
X118440Y9066D3*
X117940D3*
X117440D3*
X116940D3*
X116440D3*
X115940D3*
X115440D3*
X114940D3*
Y6940D3*
X115440D3*
X115940D3*
X116440D3*
X116940D3*
X117440D3*
X117940D3*
X118440D3*
X109440Y9066D3*
X108940D3*
X108440D3*
X107940D3*
X107440D3*
X106940D3*
X106440D3*
X105940D3*
Y6940D3*
X106440D3*
X106940D3*
X107440D3*
X107940D3*
X108440D3*
X108940D3*
X109440D3*
D33*
X15940Y17940D3*
Y17440D3*
Y16940D3*
Y16440D3*
Y15940D3*
Y15440D3*
Y14940D3*
Y14440D3*
Y13940D3*
Y13440D3*
Y12940D3*
Y12440D3*
Y11940D3*
Y11440D3*
X19640D3*
Y11940D3*
Y12440D3*
Y12940D3*
Y13440D3*
Y13940D3*
Y14440D3*
Y14940D3*
Y15440D3*
Y15940D3*
Y16440D3*
Y16940D3*
Y17440D3*
Y17940D3*
X36940D3*
Y17440D3*
Y16940D3*
Y16440D3*
Y15940D3*
Y15440D3*
Y14940D3*
Y14440D3*
Y13940D3*
Y13440D3*
Y12940D3*
Y12440D3*
Y11940D3*
Y11440D3*
X40640D3*
Y11940D3*
Y12440D3*
Y12940D3*
Y13440D3*
Y13940D3*
Y14440D3*
Y14940D3*
Y15440D3*
Y15940D3*
Y16440D3*
Y16940D3*
Y17440D3*
Y17940D3*
X29940D3*
Y17440D3*
Y16940D3*
Y16440D3*
Y15940D3*
Y15440D3*
Y14940D3*
Y14440D3*
Y13940D3*
Y13440D3*
Y12940D3*
Y12440D3*
Y11940D3*
Y11440D3*
X33640D3*
Y11940D3*
Y12440D3*
Y12940D3*
Y13440D3*
Y13940D3*
Y14440D3*
Y14940D3*
Y15440D3*
Y15940D3*
Y16440D3*
Y16940D3*
Y17440D3*
Y17940D3*
X78940D3*
Y17440D3*
Y16940D3*
Y16440D3*
Y15940D3*
Y15440D3*
Y14940D3*
Y14440D3*
Y13940D3*
Y13440D3*
Y12940D3*
Y12440D3*
Y11940D3*
Y11440D3*
X82641D3*
Y11940D3*
Y12440D3*
Y12940D3*
Y13440D3*
Y13940D3*
Y14440D3*
Y14940D3*
Y15440D3*
Y15940D3*
Y16440D3*
Y16940D3*
Y17440D3*
Y17940D3*
X92940D3*
Y17440D3*
Y16940D3*
Y16440D3*
Y15940D3*
Y15440D3*
Y14940D3*
Y14440D3*
Y13940D3*
Y13440D3*
Y12940D3*
Y12440D3*
Y11940D3*
Y11440D3*
X96641D3*
Y11940D3*
Y12440D3*
Y12940D3*
Y13440D3*
Y13940D3*
Y14440D3*
Y14940D3*
Y15440D3*
Y15940D3*
Y16440D3*
Y16940D3*
Y17440D3*
Y17940D3*
X130540Y11740D3*
Y11240D3*
Y10740D3*
Y10240D3*
X132666D3*
Y10740D3*
Y11240D3*
Y11740D3*
D34*
X131406Y7098D3*
X131780D3*
X132154D3*
Y8161D3*
X131406D3*
D32*
X20940Y8940D3*
X20440D3*
X19940D3*
X19440D3*
X18940D3*
X18440D3*
X17940D3*
X17440D3*
Y6814D3*
X17940D3*
X18440D3*
X18940D3*
X19440D3*
X19940D3*
X20440D3*
X20940D3*
D33*
X85940Y17940D3*
Y17440D3*
Y16940D3*
Y16440D3*
Y15940D3*
Y15440D3*
Y14940D3*
Y14440D3*
Y13940D3*
Y13440D3*
Y12940D3*
Y12440D3*
Y11940D3*
Y11440D3*
X89641D3*
Y11940D3*
Y12440D3*
Y12940D3*
Y13440D3*
Y13940D3*
Y14440D3*
Y14940D3*
Y15440D3*
Y15940D3*
Y16440D3*
Y16940D3*
Y17440D3*
Y17940D3*
X57940D3*
Y17440D3*
Y16940D3*
Y16440D3*
Y15940D3*
Y15440D3*
Y14940D3*
Y14440D3*
Y13940D3*
Y13440D3*
Y12940D3*
Y12440D3*
Y11940D3*
Y11440D3*
X61641D3*
Y11940D3*
Y12440D3*
Y12940D3*
Y13440D3*
Y13940D3*
Y14440D3*
Y14940D3*
Y15440D3*
Y15940D3*
Y16440D3*
Y16940D3*
Y17440D3*
Y17940D3*
X64940D3*
Y17440D3*
Y16940D3*
Y16440D3*
Y15940D3*
Y15440D3*
Y14940D3*
Y14440D3*
Y13940D3*
Y13440D3*
Y12940D3*
Y12440D3*
Y11940D3*
Y11440D3*
X68641D3*
Y11940D3*
Y12440D3*
Y12940D3*
Y13440D3*
Y13940D3*
Y14440D3*
Y14940D3*
Y15440D3*
Y15940D3*
Y16440D3*
Y16940D3*
Y17440D3*
Y17940D3*
X43940D3*
Y17440D3*
Y16940D3*
Y16440D3*
Y15940D3*
Y15440D3*
Y14940D3*
Y14440D3*
Y13940D3*
Y13440D3*
Y12940D3*
Y12440D3*
Y11940D3*
Y11440D3*
X47641D3*
Y11940D3*
Y12440D3*
Y12940D3*
Y13440D3*
Y13940D3*
Y14440D3*
Y14940D3*
Y15440D3*
Y15940D3*
Y16440D3*
Y16940D3*
Y17440D3*
Y17940D3*
D32*
X79440Y9066D3*
X78940D3*
X78440D3*
X77940D3*
X77440D3*
X76940D3*
X76440D3*
X75940D3*
Y6940D3*
X76440D3*
X76940D3*
X77440D3*
X77940D3*
X78440D3*
X78940D3*
X79440D3*
D33*
X50940Y17940D3*
Y17440D3*
Y16940D3*
Y16440D3*
Y15940D3*
Y15440D3*
Y14940D3*
Y14440D3*
Y13940D3*
Y13440D3*
Y12940D3*
Y12440D3*
Y11940D3*
Y11440D3*
X54641D3*
Y11940D3*
Y12440D3*
Y12940D3*
Y13440D3*
Y13940D3*
Y14440D3*
Y14940D3*
Y15440D3*
Y15940D3*
Y16440D3*
Y16940D3*
Y17440D3*
Y17940D3*
X113940D3*
Y17440D3*
Y16940D3*
Y16440D3*
Y15940D3*
Y15440D3*
Y14940D3*
Y14440D3*
Y13940D3*
Y13440D3*
Y12940D3*
Y12440D3*
Y11940D3*
Y11440D3*
X117641D3*
Y11940D3*
Y12440D3*
Y12940D3*
Y13440D3*
Y13940D3*
Y14440D3*
Y14940D3*
Y15440D3*
Y15940D3*
Y16440D3*
Y16940D3*
Y17440D3*
Y17940D3*
X120940D3*
Y17440D3*
Y16940D3*
Y16440D3*
Y15940D3*
Y15440D3*
Y14940D3*
Y14440D3*
Y13940D3*
Y13440D3*
Y12940D3*
Y12440D3*
Y11940D3*
Y11440D3*
X124641D3*
Y11940D3*
Y12440D3*
Y12940D3*
Y13440D3*
Y13940D3*
Y14440D3*
Y14940D3*
Y15440D3*
Y15940D3*
Y16440D3*
Y16940D3*
Y17440D3*
Y17940D3*
X99940D3*
Y17440D3*
Y16940D3*
Y16440D3*
Y15940D3*
Y15440D3*
Y14940D3*
Y14440D3*
Y13940D3*
Y13440D3*
Y12940D3*
Y12440D3*
Y11940D3*
Y11440D3*
X103641D3*
Y11940D3*
Y12440D3*
Y12940D3*
Y13440D3*
Y13940D3*
Y14440D3*
Y14940D3*
Y15440D3*
Y15940D3*
Y16440D3*
Y16940D3*
Y17440D3*
Y17940D3*
X106940D3*
Y17440D3*
Y16940D3*
Y16440D3*
Y15940D3*
Y15440D3*
Y14940D3*
Y14440D3*
Y13940D3*
Y13440D3*
Y12940D3*
Y12440D3*
Y11940D3*
Y11440D3*
X110641D3*
Y11940D3*
Y12440D3*
Y12940D3*
Y13440D3*
Y13940D3*
Y14440D3*
Y14940D3*
Y15440D3*
Y15940D3*
Y16440D3*
Y16940D3*
Y17440D3*
Y17940D3*
X22940D3*
Y17440D3*
Y16940D3*
Y16440D3*
Y15940D3*
Y15440D3*
Y14940D3*
Y14440D3*
Y13940D3*
Y13440D3*
Y12940D3*
Y12440D3*
Y11940D3*
Y11440D3*
X26640D3*
Y11940D3*
Y12440D3*
Y12940D3*
Y13440D3*
Y13940D3*
Y14440D3*
Y14940D3*
Y15440D3*
Y15940D3*
Y16440D3*
Y16940D3*
Y17440D3*
Y17940D3*
X71940D3*
Y17440D3*
Y16940D3*
Y16440D3*
Y15940D3*
Y15440D3*
Y14940D3*
Y14440D3*
Y13940D3*
Y13440D3*
Y12940D3*
Y12440D3*
Y11940D3*
Y11440D3*
X75641D3*
Y11940D3*
Y12440D3*
Y12940D3*
Y13440D3*
Y13940D3*
Y14440D3*
Y14940D3*
Y15440D3*
Y15940D3*
Y16440D3*
Y16940D3*
Y17440D3*
Y17940D3*
D34*
X126316Y7738D3*
X126690D3*
X127064D3*
Y8801D3*
X126316D3*
D24*
X5440Y6940D3*
D33*
X127815Y20940D3*
Y20440D3*
Y19940D3*
Y19440D3*
X129941D3*
Y19940D3*
Y20440D3*
Y20940D3*
M02*
