G04 DipTrace 2.4.0.1*
%INTopMask.gbr*%
%MOIN*%
%ADD37C,0.0394*%
%ADD43R,0.0256X0.0453*%
%ADD45R,0.0807X0.0256*%
%ADD47R,0.0256X0.0807*%
%ADD49R,0.0276X0.0433*%
%ADD53O,0.1407X0.062*%
%ADD55C,0.0926*%
%ADD59R,0.0926X0.0926*%
%ADD61C,0.0689*%
%ADD65R,0.0689X0.0689*%
%ADD67R,0.0453X0.0414*%
%ADD69R,0.0532X0.0611*%
%ADD71R,0.0414X0.0453*%
%ADD73R,0.0611X0.0532*%
%FSLAX44Y44*%
G04*
G70*
G90*
G75*
G01*
%LNTopMask*%
%LPD*%
D73*
X119665Y22840D3*
Y23588D3*
D37*
X5440Y24440D3*
D73*
X116790Y23590D3*
Y22842D3*
D37*
X132940Y24440D3*
D71*
X126690Y19315D3*
Y19984D3*
D73*
X126940Y20690D3*
Y21438D3*
X26190Y19440D3*
Y18692D3*
X22065Y17190D3*
Y17938D3*
X130940Y20440D3*
Y19692D3*
D69*
X128565Y18690D3*
X129313D3*
D67*
X121440Y24065D3*
X120771D3*
D69*
X116565Y21565D3*
X115817D3*
D73*
X19065Y19440D3*
Y18692D3*
X15065Y17190D3*
Y17938D3*
X40065Y19440D3*
Y18692D3*
X36065Y17190D3*
Y17938D3*
X33065Y19440D3*
Y18692D3*
X29140Y17140D3*
Y17888D3*
X82440Y19440D3*
Y18692D3*
X78140Y17240D3*
Y17988D3*
X61315Y19440D3*
Y18692D3*
X57140Y17240D3*
Y17988D3*
X68440Y19440D3*
Y18692D3*
X64140Y17240D3*
Y17988D3*
X47315Y19440D3*
Y18692D3*
X43140Y17240D3*
Y17988D3*
X54440Y19440D3*
Y18692D3*
X50140Y17240D3*
Y17988D3*
X75315Y19440D3*
Y18692D3*
X71140Y17240D3*
Y17988D3*
X96315Y19440D3*
Y18692D3*
X130665Y6865D3*
Y7613D3*
D69*
X131540Y6490D3*
X132288D3*
D73*
X125560Y8494D3*
Y7746D3*
D69*
X126315Y6615D3*
X127063D3*
D67*
X131915Y9615D3*
X131246D3*
D71*
X129793Y11090D3*
Y10421D3*
D73*
X92065Y17190D3*
Y17938D3*
X89315Y19440D3*
Y18692D3*
X85065Y17190D3*
Y17938D3*
X117340Y19440D3*
Y18692D3*
D71*
X5940Y18040D3*
Y18709D3*
D73*
X113140Y17240D3*
Y17988D3*
X124565Y19440D3*
Y18692D3*
X120140Y17240D3*
Y17988D3*
X103440Y19440D3*
Y18692D3*
X99140Y17240D3*
Y17988D3*
X110440Y19440D3*
Y18692D3*
X106140Y17240D3*
Y17988D3*
D71*
X25565Y19315D3*
Y18646D3*
D67*
X23315Y20440D3*
X22646D3*
X128234Y17815D3*
X127565D3*
D71*
X131690Y21190D3*
Y20521D3*
X116140Y23840D3*
Y23171D3*
X120290Y23465D3*
Y22796D3*
X18440Y19315D3*
Y18646D3*
D67*
X16740Y20340D3*
X16071D3*
D71*
X39440Y19315D3*
Y18646D3*
D67*
X37440Y20440D3*
X36771D3*
D71*
X32440Y19315D3*
Y18646D3*
D67*
X30565Y20440D3*
X29896D3*
D71*
X60690Y19315D3*
Y18646D3*
D67*
X58252Y20440D3*
X57583D3*
D71*
X67815Y19315D3*
Y18646D3*
D67*
X66065Y20440D3*
X65396D3*
D71*
X46690Y19315D3*
Y18646D3*
D67*
X45065Y20440D3*
X44396D3*
D71*
X53815Y19315D3*
Y18646D3*
D67*
X51690Y20440D3*
X51021D3*
D71*
X81815Y19440D3*
Y18771D3*
D67*
X80065Y20440D3*
X79396D3*
D71*
X74690Y19315D3*
Y18646D3*
D67*
X72815Y20440D3*
X72146D3*
D71*
X95690Y19315D3*
Y18646D3*
D67*
X94190Y20440D3*
X93521D3*
D71*
X88690Y19315D3*
Y18646D3*
D67*
X86878Y20440D3*
X86208D3*
D71*
X116740Y19440D3*
Y18771D3*
D67*
X114690Y20440D3*
X114021D3*
D71*
X123940Y19315D3*
Y18646D3*
D67*
X121815Y20440D3*
X121146D3*
D71*
X102815Y19440D3*
Y18771D3*
D67*
X100815Y20440D3*
X100146D3*
D71*
X109815Y19315D3*
Y18646D3*
D67*
X107940Y20440D3*
X107271D3*
X126315Y9865D3*
X125646D3*
D71*
X129915Y8365D3*
Y7696D3*
X132915Y9740D3*
Y9071D3*
D65*
X18315Y23065D3*
D61*
X17315D3*
D65*
X128440Y5240D3*
D61*
X129440D3*
D59*
X15214Y6215D3*
D55*
X13836D3*
X12458D3*
X11080D3*
X9702D3*
D53*
X11940Y12940D3*
Y15940D3*
Y17940D3*
Y19940D3*
X8940D3*
Y17940D3*
Y15940D3*
Y12940D3*
D65*
X124440Y22240D3*
D61*
X123440D3*
D49*
X6519Y17863D3*
X7267D3*
X6893Y18769D3*
D67*
X115190Y21565D3*
X114521D3*
D71*
X115190Y23065D3*
Y22396D3*
D67*
X126075Y23175D3*
X125405D3*
X127690Y22190D3*
X127021D3*
D71*
X132790Y7740D3*
Y7071D3*
D67*
X131415Y8740D3*
X132084D3*
X126315Y9365D3*
X126984D3*
D71*
X127690Y8534D3*
Y7865D3*
X126065Y19315D3*
Y18646D3*
X5440Y17190D3*
Y17859D3*
D65*
X26940Y21940D3*
D61*
X25940D3*
D65*
X33940D3*
D61*
X32940D3*
D65*
X40940D3*
D61*
X39940D3*
D65*
X47940D3*
D61*
X46940D3*
D65*
X54940D3*
D61*
X53940D3*
D65*
X61940D3*
D61*
X60940D3*
D65*
X68940D3*
D61*
X67940D3*
D65*
X75940D3*
D61*
X74940D3*
D65*
X82940D3*
D61*
X81940D3*
D65*
X89940D3*
D61*
X88940D3*
D65*
X96940D3*
D61*
X95940D3*
D65*
X103940D3*
D61*
X102940D3*
D65*
X110940D3*
D61*
X109940D3*
D65*
X23940D3*
D61*
X22940D3*
D65*
X30440D3*
D61*
X29440D3*
D65*
X37440D3*
D61*
X36440D3*
D65*
X44440D3*
D61*
X43440D3*
D65*
X51440D3*
D61*
X50440D3*
D65*
X58440D3*
D61*
X57440D3*
D65*
X65440D3*
D61*
X64440D3*
D65*
X72440D3*
D61*
X71440D3*
D65*
X79440D3*
D61*
X78440D3*
D65*
X86440D3*
D61*
X85440D3*
D65*
X93440D3*
D61*
X92440D3*
D65*
X100440D3*
D61*
X99440D3*
D65*
X107440D3*
D61*
X106440D3*
D65*
X12815Y22940D3*
D61*
X11815D3*
D47*
X118940Y24315D3*
X118440D3*
X117940D3*
X117440D3*
Y22189D3*
X117940D3*
X118440D3*
X118940D3*
D45*
X11840Y11540D3*
Y11040D3*
Y10540D3*
Y10040D3*
Y9540D3*
Y9040D3*
Y8540D3*
Y8040D3*
X13966D3*
Y8540D3*
Y9040D3*
Y9540D3*
Y10040D3*
Y10540D3*
Y11040D3*
Y11540D3*
D47*
X35440Y8940D3*
X34940D3*
X34440D3*
X33940D3*
X33440D3*
X32940D3*
X32440D3*
X31940D3*
Y6814D3*
X32440D3*
X32940D3*
X33440D3*
X33940D3*
X34440D3*
X34940D3*
X35440D3*
X44940Y9066D3*
X44440D3*
X43940D3*
X43440D3*
X42940D3*
X42440D3*
X41940D3*
X41440D3*
Y6940D3*
X41940D3*
X42440D3*
X42940D3*
X43440D3*
X43940D3*
X44440D3*
X44940D3*
X65940Y9066D3*
X65440D3*
X64940D3*
X64440D3*
X63940D3*
X63440D3*
X62940D3*
X62440D3*
Y6940D3*
X62940D3*
X63440D3*
X63940D3*
X64440D3*
X64940D3*
X65440D3*
X65940D3*
X55440Y9066D3*
X54940D3*
X54440D3*
X53940D3*
X53440D3*
X52940D3*
X52440D3*
X51940D3*
Y6940D3*
X52440D3*
X52940D3*
X53440D3*
X53940D3*
X54440D3*
X54940D3*
X55440D3*
X89940Y9066D3*
X89440D3*
X88940D3*
X88440D3*
X87940D3*
X87440D3*
X86940D3*
X86440D3*
Y6940D3*
X86940D3*
X87440D3*
X87940D3*
X88440D3*
X88940D3*
X89440D3*
X89940D3*
X100440Y9066D3*
X99940D3*
X99440D3*
X98940D3*
X98440D3*
X97940D3*
X97440D3*
X96940D3*
Y6940D3*
X97440D3*
X97940D3*
X98440D3*
X98940D3*
X99440D3*
X99940D3*
X100440D3*
X118440Y9066D3*
X117940D3*
X117440D3*
X116940D3*
X116440D3*
X115940D3*
X115440D3*
X114940D3*
Y6940D3*
X115440D3*
X115940D3*
X116440D3*
X116940D3*
X117440D3*
X117940D3*
X118440D3*
X109440Y9066D3*
X108940D3*
X108440D3*
X107940D3*
X107440D3*
X106940D3*
X106440D3*
X105940D3*
Y6940D3*
X106440D3*
X106940D3*
X107440D3*
X107940D3*
X108440D3*
X108940D3*
X109440D3*
D45*
X15940Y17940D3*
Y17440D3*
Y16940D3*
Y16440D3*
Y15940D3*
Y15440D3*
Y14940D3*
Y14440D3*
Y13940D3*
Y13440D3*
Y12940D3*
Y12440D3*
Y11940D3*
Y11440D3*
X19640D3*
Y11940D3*
Y12440D3*
Y12940D3*
Y13440D3*
Y13940D3*
Y14440D3*
Y14940D3*
Y15440D3*
Y15940D3*
Y16440D3*
Y16940D3*
Y17440D3*
Y17940D3*
X36940D3*
Y17440D3*
Y16940D3*
Y16440D3*
Y15940D3*
Y15440D3*
Y14940D3*
Y14440D3*
Y13940D3*
Y13440D3*
Y12940D3*
Y12440D3*
Y11940D3*
Y11440D3*
X40640D3*
Y11940D3*
Y12440D3*
Y12940D3*
Y13440D3*
Y13940D3*
Y14440D3*
Y14940D3*
Y15440D3*
Y15940D3*
Y16440D3*
Y16940D3*
Y17440D3*
Y17940D3*
X29940D3*
Y17440D3*
Y16940D3*
Y16440D3*
Y15940D3*
Y15440D3*
Y14940D3*
Y14440D3*
Y13940D3*
Y13440D3*
Y12940D3*
Y12440D3*
Y11940D3*
Y11440D3*
X33640D3*
Y11940D3*
Y12440D3*
Y12940D3*
Y13440D3*
Y13940D3*
Y14440D3*
Y14940D3*
Y15440D3*
Y15940D3*
Y16440D3*
Y16940D3*
Y17440D3*
Y17940D3*
X78940D3*
Y17440D3*
Y16940D3*
Y16440D3*
Y15940D3*
Y15440D3*
Y14940D3*
Y14440D3*
Y13940D3*
Y13440D3*
Y12940D3*
Y12440D3*
Y11940D3*
Y11440D3*
X82641D3*
Y11940D3*
Y12440D3*
Y12940D3*
Y13440D3*
Y13940D3*
Y14440D3*
Y14940D3*
Y15440D3*
Y15940D3*
Y16440D3*
Y16940D3*
Y17440D3*
Y17940D3*
X92940D3*
Y17440D3*
Y16940D3*
Y16440D3*
Y15940D3*
Y15440D3*
Y14940D3*
Y14440D3*
Y13940D3*
Y13440D3*
Y12940D3*
Y12440D3*
Y11940D3*
Y11440D3*
X96641D3*
Y11940D3*
Y12440D3*
Y12940D3*
Y13440D3*
Y13940D3*
Y14440D3*
Y14940D3*
Y15440D3*
Y15940D3*
Y16440D3*
Y16940D3*
Y17440D3*
Y17940D3*
X130540Y11740D3*
Y11240D3*
Y10740D3*
Y10240D3*
X132666D3*
Y10740D3*
Y11240D3*
Y11740D3*
D43*
X131406Y7098D3*
X131780D3*
X132154D3*
Y8161D3*
X131406D3*
D47*
X20940Y8940D3*
X20440D3*
X19940D3*
X19440D3*
X18940D3*
X18440D3*
X17940D3*
X17440D3*
Y6814D3*
X17940D3*
X18440D3*
X18940D3*
X19440D3*
X19940D3*
X20440D3*
X20940D3*
D45*
X85940Y17940D3*
Y17440D3*
Y16940D3*
Y16440D3*
Y15940D3*
Y15440D3*
Y14940D3*
Y14440D3*
Y13940D3*
Y13440D3*
Y12940D3*
Y12440D3*
Y11940D3*
Y11440D3*
X89641D3*
Y11940D3*
Y12440D3*
Y12940D3*
Y13440D3*
Y13940D3*
Y14440D3*
Y14940D3*
Y15440D3*
Y15940D3*
Y16440D3*
Y16940D3*
Y17440D3*
Y17940D3*
X57940D3*
Y17440D3*
Y16940D3*
Y16440D3*
Y15940D3*
Y15440D3*
Y14940D3*
Y14440D3*
Y13940D3*
Y13440D3*
Y12940D3*
Y12440D3*
Y11940D3*
Y11440D3*
X61641D3*
Y11940D3*
Y12440D3*
Y12940D3*
Y13440D3*
Y13940D3*
Y14440D3*
Y14940D3*
Y15440D3*
Y15940D3*
Y16440D3*
Y16940D3*
Y17440D3*
Y17940D3*
X64940D3*
Y17440D3*
Y16940D3*
Y16440D3*
Y15940D3*
Y15440D3*
Y14940D3*
Y14440D3*
Y13940D3*
Y13440D3*
Y12940D3*
Y12440D3*
Y11940D3*
Y11440D3*
X68641D3*
Y11940D3*
Y12440D3*
Y12940D3*
Y13440D3*
Y13940D3*
Y14440D3*
Y14940D3*
Y15440D3*
Y15940D3*
Y16440D3*
Y16940D3*
Y17440D3*
Y17940D3*
X43940D3*
Y17440D3*
Y16940D3*
Y16440D3*
Y15940D3*
Y15440D3*
Y14940D3*
Y14440D3*
Y13940D3*
Y13440D3*
Y12940D3*
Y12440D3*
Y11940D3*
Y11440D3*
X47641D3*
Y11940D3*
Y12440D3*
Y12940D3*
Y13440D3*
Y13940D3*
Y14440D3*
Y14940D3*
Y15440D3*
Y15940D3*
Y16440D3*
Y16940D3*
Y17440D3*
Y17940D3*
D47*
X79440Y9066D3*
X78940D3*
X78440D3*
X77940D3*
X77440D3*
X76940D3*
X76440D3*
X75940D3*
Y6940D3*
X76440D3*
X76940D3*
X77440D3*
X77940D3*
X78440D3*
X78940D3*
X79440D3*
D45*
X50940Y17940D3*
Y17440D3*
Y16940D3*
Y16440D3*
Y15940D3*
Y15440D3*
Y14940D3*
Y14440D3*
Y13940D3*
Y13440D3*
Y12940D3*
Y12440D3*
Y11940D3*
Y11440D3*
X54641D3*
Y11940D3*
Y12440D3*
Y12940D3*
Y13440D3*
Y13940D3*
Y14440D3*
Y14940D3*
Y15440D3*
Y15940D3*
Y16440D3*
Y16940D3*
Y17440D3*
Y17940D3*
X113940D3*
Y17440D3*
Y16940D3*
Y16440D3*
Y15940D3*
Y15440D3*
Y14940D3*
Y14440D3*
Y13940D3*
Y13440D3*
Y12940D3*
Y12440D3*
Y11940D3*
Y11440D3*
X117641D3*
Y11940D3*
Y12440D3*
Y12940D3*
Y13440D3*
Y13940D3*
Y14440D3*
Y14940D3*
Y15440D3*
Y15940D3*
Y16440D3*
Y16940D3*
Y17440D3*
Y17940D3*
X120940D3*
Y17440D3*
Y16940D3*
Y16440D3*
Y15940D3*
Y15440D3*
Y14940D3*
Y14440D3*
Y13940D3*
Y13440D3*
Y12940D3*
Y12440D3*
Y11940D3*
Y11440D3*
X124641D3*
Y11940D3*
Y12440D3*
Y12940D3*
Y13440D3*
Y13940D3*
Y14440D3*
Y14940D3*
Y15440D3*
Y15940D3*
Y16440D3*
Y16940D3*
Y17440D3*
Y17940D3*
X99940D3*
Y17440D3*
Y16940D3*
Y16440D3*
Y15940D3*
Y15440D3*
Y14940D3*
Y14440D3*
Y13940D3*
Y13440D3*
Y12940D3*
Y12440D3*
Y11940D3*
Y11440D3*
X103641D3*
Y11940D3*
Y12440D3*
Y12940D3*
Y13440D3*
Y13940D3*
Y14440D3*
Y14940D3*
Y15440D3*
Y15940D3*
Y16440D3*
Y16940D3*
Y17440D3*
Y17940D3*
X106940D3*
Y17440D3*
Y16940D3*
Y16440D3*
Y15940D3*
Y15440D3*
Y14940D3*
Y14440D3*
Y13940D3*
Y13440D3*
Y12940D3*
Y12440D3*
Y11940D3*
Y11440D3*
X110641D3*
Y11940D3*
Y12440D3*
Y12940D3*
Y13440D3*
Y13940D3*
Y14440D3*
Y14940D3*
Y15440D3*
Y15940D3*
Y16440D3*
Y16940D3*
Y17440D3*
Y17940D3*
X22940D3*
Y17440D3*
Y16940D3*
Y16440D3*
Y15940D3*
Y15440D3*
Y14940D3*
Y14440D3*
Y13940D3*
Y13440D3*
Y12940D3*
Y12440D3*
Y11940D3*
Y11440D3*
X26640D3*
Y11940D3*
Y12440D3*
Y12940D3*
Y13440D3*
Y13940D3*
Y14440D3*
Y14940D3*
Y15440D3*
Y15940D3*
Y16440D3*
Y16940D3*
Y17440D3*
Y17940D3*
X71940D3*
Y17440D3*
Y16940D3*
Y16440D3*
Y15940D3*
Y15440D3*
Y14940D3*
Y14440D3*
Y13940D3*
Y13440D3*
Y12940D3*
Y12440D3*
Y11940D3*
Y11440D3*
X75641D3*
Y11940D3*
Y12440D3*
Y12940D3*
Y13440D3*
Y13940D3*
Y14440D3*
Y14940D3*
Y15440D3*
Y15940D3*
Y16440D3*
Y16940D3*
Y17440D3*
Y17940D3*
D43*
X126316Y7738D3*
X126690D3*
X127064D3*
Y8801D3*
X126316D3*
D61*
X5440Y6940D3*
D45*
X127815Y20940D3*
Y20440D3*
Y19940D3*
Y19440D3*
X129941D3*
Y19940D3*
Y20440D3*
Y20940D3*
D37*
X5440Y5440D3*
X132940D3*
M02*
