G04 DipTrace 2.4.0.1*
%INBottom.gbr*%
%MOIN*%
%ADD13C,0.01*%
%ADD14C,0.05*%
%ADD15C,0.04*%
%ADD18C,0.025*%
%ADD20C,0.0152*%
%ADD22R,0.063X0.063*%
%ADD23C,0.063*%
%ADD27R,0.05X0.05*%
%ADD28R,0.0472X0.0472*%
%ADD30C,0.0472*%
%ADD32C,0.063*%
%ADD33C,0.1299*%
%ADD35R,0.0669X0.0669*%
%ADD37C,0.0669*%
%ADD38R,0.0906X0.0906*%
%ADD40C,0.0906*%
%ADD49C,0.048*%
%FSLAX44Y44*%
G04*
G70*
G90*
G75*
G01*
%LNBottom*%
%LPD*%
X66100Y20320D2*
D13*
X65230D1*
X64850Y19940D1*
Y18120D1*
X63940Y17210D1*
X63520D1*
X62610Y18120D1*
Y18960D1*
X62560Y19010D1*
X58220Y14940D2*
Y18920D1*
X59340Y20040D1*
X60040D1*
X60490Y19590D1*
X130940Y24440D2*
D14*
Y20890D1*
D15*
Y20440D1*
X70340Y10640D2*
D13*
X66940D1*
X66440Y11140D1*
Y11840D1*
X70340Y11640D2*
X67440D1*
X66640Y12440D1*
X66240D1*
X74280Y9100D2*
X70920D1*
X70560Y8740D1*
X55250D1*
X50350Y13640D1*
X48380D1*
X48060Y13320D1*
Y12860D1*
X47760Y12560D1*
X46630D1*
X46410Y12780D1*
Y12890D1*
X46370Y12850D1*
X111940Y5440D2*
Y6140D1*
X110440Y7640D1*
X55040D1*
X50740Y11940D1*
X97440Y10594D2*
D14*
Y10440D1*
X98540Y9340D1*
X118040D1*
X124840Y16140D1*
Y21940D1*
X127440Y24540D1*
X129840D1*
X129940Y24440D1*
X61740Y13440D2*
D13*
Y14540D1*
X64740Y17540D1*
X66840D1*
X66940Y17640D1*
Y19740D1*
X62240Y13440D2*
Y14640D1*
X64840Y17240D1*
X67240D1*
X67440Y17440D1*
Y19740D1*
X67940D2*
Y17440D1*
X67440Y16940D1*
X65040D1*
X62740Y14640D1*
Y13440D1*
X63240D2*
Y14640D1*
X65240Y16640D1*
X67640D1*
X68440Y17440D1*
Y19740D1*
X68940D2*
Y17440D1*
X67840Y16340D1*
X65440D1*
X63740Y14640D1*
Y13440D1*
X64240D2*
Y14640D1*
X65640Y16040D1*
X68040D1*
X69440Y17440D1*
Y19740D1*
X69940D2*
Y17440D1*
X68240Y15740D1*
X65840D1*
X64740Y14640D1*
Y13440D1*
X65240D2*
Y14740D1*
X65940Y15440D1*
X68440D1*
X70440Y17440D1*
Y19740D1*
X69840Y24640D2*
X71940D1*
X72140Y24840D1*
X77640D1*
X78140Y24340D1*
X78740D1*
X68440D2*
X68740D1*
X69040Y24040D1*
X72440D1*
X72740Y24340D1*
X69840Y22240D2*
X72640D1*
X72740Y22340D1*
X69940Y21540D2*
X70540D1*
X71340Y20740D1*
X78140D1*
X78740Y21340D1*
X66840Y22340D2*
X67340Y22840D1*
X78240D1*
X78740Y22340D1*
X60340Y22240D2*
Y21640D1*
X59940Y21240D1*
X58640D1*
X51940Y5440D2*
Y6440D1*
X48740Y9640D1*
Y11840D1*
X91940Y5440D2*
Y6140D1*
X91040Y7040D1*
X54640D1*
X49840Y11840D1*
Y12540D1*
X71940Y5440D2*
Y5040D1*
X71040Y4140D1*
X56340D1*
X49240Y11240D1*
Y12540D1*
X52640Y23240D2*
D18*
X58640D1*
X102540Y10540D2*
X101140D1*
X96340Y15340D1*
Y20240D1*
X93240Y23340D1*
X78740D1*
X72740D2*
X63920D1*
X58740D1*
X58640Y23240D1*
X63920Y17780D2*
D20*
Y23340D1*
X52220Y17370D2*
D13*
Y19380D1*
X49490Y22110D1*
X38420D1*
X35210Y25320D1*
X69537Y9157D2*
X64557D1*
X64027Y9687D1*
X60457D1*
X60027Y10117D1*
Y12153D1*
X60140Y12040D1*
X58127Y20237D2*
Y19697D1*
X57727Y19297D1*
Y17517D1*
X57547Y17337D1*
X56740Y17440D2*
Y18440D1*
X56440Y18740D1*
Y20140D1*
X55840Y20740D1*
X58967Y16017D2*
X58917D1*
X58667Y15767D1*
Y14017D1*
X59907Y12777D1*
X65457D1*
X65647Y12967D1*
Y12987D1*
X66077Y13417D1*
X87767D1*
X92867Y8317D1*
X120457D1*
X123297Y11157D1*
D15*
X54640Y16540D3*
X59190Y17130D3*
X62680D3*
X53940Y16940D3*
X59540Y18240D3*
X62385Y17485D3*
X61740Y17440D3*
X54140Y19640D3*
X66100Y20320D3*
X60390Y20450D3*
X60850Y19940D3*
X58340Y9790D3*
X57810Y12000D3*
X58220Y14940D3*
X60490Y19590D3*
X61100Y14590D3*
X71210Y14760D3*
X69310Y14700D3*
X74280Y9100D3*
X46370Y12850D3*
X50740Y11940D3*
X69840Y24640D3*
X68440Y24340D3*
X69840Y22240D3*
X69940Y21540D3*
X66840Y22340D3*
X60340Y22240D3*
X48740Y11840D3*
X49840Y12540D3*
X49240D3*
X59540Y19440D3*
X52220Y17370D3*
X121577Y16027D3*
X77887Y11897D3*
X69537Y9157D3*
X60140Y12040D3*
X121607Y16507D3*
X58127Y20237D3*
X57547Y17337D3*
X55840Y20740D3*
X58967Y16017D3*
X123297Y11157D3*
X62290Y9240D3*
X125867Y14517D3*
X126767Y15317D3*
X62240Y13440D3*
X62740D3*
X63240D3*
X63740D3*
X64240D3*
X64740D3*
X65240D3*
X61740D3*
X66940Y19740D3*
X67440D3*
X67940D3*
X68440D3*
X68940D3*
X69440D3*
X69940D3*
X70440D3*
X59640Y15940D3*
X60840Y19140D3*
X69320Y15710D3*
X65440Y19240D3*
X66240Y12440D3*
X66440Y11840D3*
X61140Y15100D3*
X48940Y17440D3*
X62740Y16340D3*
X130940Y20440D3*
X61940Y15540D3*
X62340Y15940D3*
X47940Y17440D3*
X68640Y15040D3*
X63920Y17780D3*
X65640Y14240D3*
X62560Y19010D3*
X127940Y20440D3*
X61000Y20520D3*
X56740Y17440D3*
Y16440D3*
Y15840D3*
D22*
X102540Y10540D3*
D23*
X103540D3*
D22*
X97440Y10594D3*
D23*
X96440D3*
D14*
X23040Y16040D3*
D27*
X22040D3*
D14*
X20040D3*
D27*
X19040D3*
D14*
X17040D3*
D27*
X16040D3*
D14*
X132940Y5440D3*
D27*
X131940D3*
D14*
X112940D3*
D27*
X111940D3*
D14*
X92940D3*
D27*
X91940D3*
D14*
X72940D3*
D27*
X71940D3*
D14*
X52940D3*
D27*
X51940D3*
D14*
X32940D3*
D27*
X31940D3*
D14*
X12940D3*
D27*
X11940D3*
D28*
X52640Y25240D3*
D30*
Y24240D3*
Y23240D3*
Y22240D3*
Y21240D3*
X58640D3*
Y22240D3*
Y23240D3*
Y24240D3*
Y25240D3*
D28*
X72740Y25340D3*
D30*
Y24340D3*
Y23340D3*
Y22340D3*
Y21340D3*
X78740D3*
Y22340D3*
Y23340D3*
Y24340D3*
Y25340D3*
G36*
X129683Y15787D2*
Y15546D1*
X129513Y15376D1*
X129272D1*
X129101Y15546D1*
Y15787D1*
X129272Y15958D1*
X129513D1*
X129683Y15787D1*
G37*
D32*
X129392Y14682D3*
X130180D3*
Y15667D3*
D33*
X131247Y12804D3*
Y17545D3*
D35*
X55640Y16440D3*
D37*
Y15440D3*
Y14440D3*
Y13440D3*
Y12440D3*
Y11440D3*
D35*
X129940Y24440D3*
D37*
X130940D3*
D35*
X70340Y10640D3*
D37*
Y11640D3*
Y12640D3*
D35*
X34210Y25320D3*
D37*
X35210D3*
D38*
X15140Y25040D3*
D40*
X13762D3*
X12384D3*
X11006D3*
X9628D3*
D22*
X9940Y5440D3*
D32*
X7971D3*
D22*
X29940D3*
D32*
X27971D3*
D22*
X49940D3*
D32*
X47971D3*
D22*
X69940D3*
D32*
X67971D3*
D22*
X89940D3*
D32*
X87971D3*
D22*
X109940D3*
D32*
X107971D3*
D22*
X129940D3*
D32*
X127971D3*
D22*
X103124Y19456D3*
D32*
Y21424D3*
D22*
X15024Y23224D3*
D32*
Y21256D3*
D22*
X19024Y23224D3*
D32*
Y21256D3*
D22*
X23024Y23224D3*
D32*
Y21256D3*
D22*
X119124Y19456D3*
D32*
Y21424D3*
D49*
X61290Y10990D3*
X63190D3*
D22*
X127940Y22940D3*
D23*
X128940D3*
M02*
