G04 DipTrace 2.4.0.1*
%INBottomMask.gbr*%
%MOIN*%
%ADD52C,0.0394*%
%ADD62C,0.05*%
%ADD76C,0.0926*%
%ADD80R,0.0926X0.0926*%
%ADD82C,0.0689*%
%ADD86R,0.0689X0.0689*%
%ADD90C,0.1319*%
%ADD92C,0.065*%
%ADD96C,0.0492*%
%ADD99R,0.0492X0.0492*%
%ADD101R,0.052X0.052*%
%ADD103C,0.052*%
%ADD110C,0.065*%
%ADD111R,0.065X0.065*%
%FSLAX44Y44*%
G04*
G70*
G90*
G75*
G01*
%LNBotMask*%
%LPD*%
D111*
X102540Y10540D3*
D110*
X103540D3*
D111*
X97440Y10594D3*
D110*
X96440D3*
D103*
X23040Y16040D3*
D101*
X22040D3*
D103*
X20040D3*
D101*
X19040D3*
D103*
X17040D3*
D101*
X16040D3*
D103*
X132940Y5440D3*
D101*
X131940D3*
D103*
X112940D3*
D101*
X111940D3*
D103*
X92940D3*
D101*
X91940D3*
D103*
X72940D3*
D101*
X71940D3*
D103*
X52940D3*
D101*
X51940D3*
D103*
X32940D3*
D101*
X31940D3*
D103*
X12940D3*
D101*
X11940D3*
D99*
X52640Y25240D3*
D96*
Y24240D3*
Y23240D3*
Y22240D3*
Y21240D3*
X58640D3*
Y22240D3*
Y23240D3*
Y24240D3*
Y25240D3*
D99*
X72740Y25340D3*
D96*
Y24340D3*
Y23340D3*
Y22340D3*
Y21340D3*
X78740D3*
Y22340D3*
Y23340D3*
Y24340D3*
Y25340D3*
G36*
X129693Y15791D2*
Y15542D1*
X129517Y15366D1*
X129268D1*
X129091Y15542D1*
Y15791D1*
X129268Y15968D1*
X129517D1*
X129693Y15791D1*
G37*
D92*
X129392Y14682D3*
X130180D3*
Y15667D3*
D90*
X131247Y12804D3*
Y17545D3*
D86*
X55640Y16440D3*
D82*
Y15440D3*
Y14440D3*
Y13440D3*
Y12440D3*
Y11440D3*
D86*
X129940Y24440D3*
D82*
X130940D3*
D86*
X70340Y10640D3*
D82*
Y11640D3*
Y12640D3*
D86*
X34210Y25320D3*
D82*
X35210D3*
D80*
X15140Y25040D3*
D76*
X13762D3*
X12384D3*
X11006D3*
X9628D3*
D111*
X9940Y5440D3*
D92*
X7971D3*
D111*
X29940D3*
D92*
X27971D3*
D111*
X49940D3*
D92*
X47971D3*
D111*
X69940D3*
D92*
X67971D3*
D111*
X89940D3*
D92*
X87971D3*
D111*
X109940D3*
D92*
X107971D3*
D111*
X129940D3*
D92*
X127971D3*
D111*
X103124Y19456D3*
D92*
Y21424D3*
D111*
X15024Y23224D3*
D92*
Y21256D3*
D111*
X19024Y23224D3*
D92*
Y21256D3*
D111*
X23024Y23224D3*
D92*
Y21256D3*
D111*
X119124Y19456D3*
D92*
Y21424D3*
D62*
X61290Y10990D3*
X63190D3*
D52*
X5440Y24940D3*
Y5440D3*
X132940Y25440D3*
D111*
X127940Y22940D3*
D110*
X128940D3*
D52*
X129940Y7440D3*
M02*
