M48
INCH
T01C0.0191
T02C0.028
T03C0.0315
T04C0.032
T05C0.0354
T06C0.0362
T07C0.0394
T08C0.0433
T09C0.0551
T10C0.0906
%
T01
X+062290Y+009240
X+060140Y+012040
X+061740Y+013440
X+062240Y+013440
X+062740Y+013440
X+063240Y+013440
X+063740Y+013440
X+064240Y+013440
X+064740Y+013440
X+065240Y+013440
X+065640Y+014240
X+066240Y+012440
X+066440Y+011840
X+068640Y+015040
X+069310Y+014700
X+069320Y+015710
X+071210Y+014760
X+070440Y+019740
X+069940Y+019740
X+069440Y+019740
X+068940Y+019740
X+068440Y+019740
X+067940Y+019740
X+067440Y+019740
X+066940Y+019740
X+066100Y+020320
X+065440Y+019240
X+063920Y+017780
X+062680Y+017130
X+062385Y+017485
X+061740Y+017440
X+062740Y+016340
X+062340Y+015940
X+061940Y+015540
X+061140Y+015100
X+061100Y+014590
X+059640Y+015940
X+058967Y+016017
X+059190Y+017130
X+059540Y+018240
X+059540Y+019440
X+060490Y+019590
X+060850Y+019940
X+061000Y+020520
X+060390Y+020450
X+060840Y+019140
X+062560Y+019010
X+060340Y+022240
X+058127Y+020237
X+055840Y+020740
X+054140Y+019640
X+053940Y+016940
X+054640Y+016540
X+056740Y+016440
X+056740Y+015840
X+056740Y+017440
X+057547Y+017337
X+058220Y+014940
X+057810Y+012000
X+058340Y+009790
X+050740Y+011940
X+049840Y+012540
X+049240Y+012540
X+048740Y+011840
X+046370Y+012850
X+047940Y+017440
X+048940Y+017440
X+052220Y+017370
X+066840Y+022340
X+068440Y+024340
X+069840Y+024640
X+069840Y+022240
X+069940Y+021540
X+069537Y+009157
X+074280Y+009100
X+077887Y+011897
X+121577Y+016027
X+121607Y+016507
X+125867Y+014517
X+126767Y+015317
X+127940Y+020440
X+130940Y+020440
X+123297Y+011157
T02
X+023040Y+016040
X+022040Y+016040
X+020040Y+016040
X+019040Y+016040
X+017040Y+016040
X+016040Y+016040
X+012940Y+005440
X+011940Y+005440
X+031940Y+005440
X+032940Y+005440
X+051940Y+005440
X+052940Y+005440
X+071940Y+005440
X+072940Y+005440
X+091940Y+005440
X+092940Y+005440
X+111940Y+005440
X+112940Y+005440
X+131940Y+005440
X+132940Y+005440
T03
X+052640Y+025240
X+052640Y+024240
X+052640Y+023240
X+052640Y+022240
X+052640Y+021240
X+058640Y+021240
X+058640Y+022240
X+058640Y+023240
X+058640Y+024240
X+058640Y+025240
X+072740Y+025340
X+072740Y+024340
X+072740Y+023340
X+072740Y+022340
X+072740Y+021340
X+078740Y+021340
X+078740Y+022340
X+078740Y+023340
X+078740Y+024340
X+078740Y+025340
T04
X+061290Y+010990
X+063190Y+010990
T05
X+102540Y+010540
X+103540Y+010540
X+097440Y+010594
X+096440Y+010594
X+127940Y+022940
X+128940Y+022940
T06
X+129392Y+015667
X+130180Y+015667
X+130180Y+014682
X+129392Y+014682
T07
X+009940Y+005440
X+007971Y+005440
X+005440Y+005440
X+015024Y+021256
X+015024Y+023224
X+019024Y+023224
X+019024Y+021256
X+023024Y+021256
X+023024Y+023224
X+005440Y+024940
X+027971Y+005440
X+029940Y+005440
X+047971Y+005440
X+049940Y+005440
X+067971Y+005440
X+069940Y+005440
X+087971Y+005440
X+089940Y+005440
X+107971Y+005440
X+109940Y+005440
X+103124Y+019456
X+103124Y+021424
X+119124Y+021424
X+119124Y+019456
X+132940Y+025440
X+129940Y+007440
X+129940Y+005440
X+127971Y+005440
T08
X+055640Y+016440
X+055640Y+015440
X+055640Y+014440
X+055640Y+013440
X+055640Y+012440
X+055640Y+011440
X+070340Y+011640
X+070340Y+010640
X+070340Y+012640
X+035210Y+025320
X+034210Y+025320
X+129940Y+024440
X+130940Y+024440
T09
X+015140Y+025040
X+013762Y+025040
X+012384Y+025040
X+011006Y+025040
X+009628Y+025040
T10
X+131247Y+012804
X+131247Y+017545
T00
M30
